<svg xmlns="http://www.w3.org/2000/svg" xml:space="preserve" style="shape-rendering:geometricPrecision;text-rendering:geometricPrecision;image-rendering:optimizeQuality;fill-rule:evenodd;clip-rule:evenodd" viewBox="0 0 552.48 173.95"><defs><style>.str0{stroke:#00767C;stroke-width:.3;stroke-miterlimit:22.9256}.fil0,.fil1{fill:#00767C}.fil0{fill-rule:nonzero}</style></defs><g id="Camada_x0020_1"><path d="M488.16 49.51c-2.58 2.76-7.7 6.67-11.58 7.97l5.71 17.9-19-.21-5.43-15.44h-4.16l-4.53 15.65-17.92-.02 13.31-55.77 31.66.21c17.22.11 20.81 20.22 11.94 29.71zm-14.65-8.29c.38-1.46.21-2.67-.51-3.65-.72-.97-1.79-1.46-3.21-1.46h-9.26l-2.72 10.3h9.26c1.42 0 2.75-.5 3.99-1.5 1.25-1 2.06-2.23 2.45-3.69zM343.73 75.38l5.41-25.62-17.18 18.7-8.68-18.83-7.13 25.96-17.84-.21 14.94-55.79h18.97l6.29 19.6 16.4-19.6h21.43l-14.72 55.79zM276.64 75.38l-.73-6.61h-20.15l-4.45 6.61h-21.03l38.79-55.79h19.2l7.48 55.79h-19.11zm-12.02-20.14h9.22l-1.35-13.04-7.87 13.04zM529.56 75.38l-.74-6.61h-20.15l-4.44 6.61h-21.04l38.79-55.79h19.2l7.49 55.79h-19.11zm-12.02-20.14h9.21L525.4 42.2l-7.86 13.04zM409.07 75.38l-.73-6.61h-20.15l-4.45 6.61h-21.03l38.79-55.79h19.2l7.48 55.79h-19.11zm-12.02-20.14h9.22l-1.35-13.04-7.87 13.04zM285.13 15.58l-3.77-3.73-6.22 3.94-12.34-.21 12.14-11.97h14.65l5.73 11.97zM240.99 34.41l-16.93 8.13c1.57-8.54-16.34-14.34-21.69 4.36-5.2 18.13 17.39 16.06 18.94 7.32l12.54 10.26c-5.31 7.85-18.47 12.59-27.4 12.59-16.78 0-27.43-15.42-23.29-31.14 2.51-9.51 6.88-16.2 13.09-21.07 12.24-9.58 40.2-9.41 44.74 9.55z" class="fil0"/><path id="_137898080" d="m46.37 116.35-2.92-44.04c-3.91 7.98-16.39 15.47-21.65 22.52 2.13.04 3.55.89 4.24 2.57l-.76.61c-3.6-2.83-5.96 1.48-5.37 3.37 1.49 4.73 5.76 3.87 8.15 3.38 4.27-.86 12.18-2.2 13.1 5.5 1.74.64 2.44 1.9 2.12 3.78 1.22-.01 2.02.69 2.42 2.12.24.05.46.12.67.19zm39.93-44.7c3.85 0 7.17-.49 10.33-1.62l.59-2.69-1.4-.45.19-.95 1.4.51.63-2.67-1.59-.51L99 49.95c-1.52-.54-3.18-.99-4.94-1.32l-.53 3.6-1.9-.25.24-3.7c-1.48-.2-3.03-.32-4.62-.35v3.67H85.22v-3.67c-1.59.03-3.14.15-4.62.35l.24 3.7-1.91.25-.52-3.6c-1.76.33-3.42.78-4.94 1.32l2.54 13.32-1.58.51.63 2.67 1.4-.51.19.95-1.4.45.65 2.69c3.17 1.06 6.54 1.62 10.4 1.62zm-4.46-22.4-.04.01.24 3.68-1.53.2.13 1.27c.54-.08 1.1-.15 1.66-.21v.89a30.9 30.9 0 0 0-3.61.59l.32 1.86c1.05-.21 2.15-.37 3.29-.49v.93c-.41.04-.82.09-1.22.14l.17 1.66c.35-.05.7-.09 1.05-.13v.93c-.94.1-1.85.23-2.74.39l.15 1.46c1.16-.24 2.43-.43 3.79-.53v-4.49c0-1.6 1.19-2.92 2.8-2.92h.12c1.61 0 2.67 1.32 2.67 2.92v4.52c1.59.14 3.18.39 4.54.72l.3-1.47c-1.12-.25-2.3-.44-3.51-.57v-.93c.52.06 1.03.12 1.53.2l.23-1.64c-.57-.09-1.16-.17-1.76-.24v-.92c1.49.16 2.92.41 4.27.74l.26-1.86c-1.42-.38-2.94-.66-4.53-.85v-.89c.87.1 1.71.23 2.52.39l.18-1.31-2.69-.36.24-3.68-.04-.01-.14-.01-.14-.01-.14-.02-.14-.01-.14-.01-.14-.01-.14-.02-.14-.01-.14-.01-.14-.01-.14-.01-.14-.01-.14-.01h-.15l-.14-.01-.14-.01v3.63h-4.3v-3.63l-.13.01-.14.01h-.15l-.14.01-.14.01-.14.01-.14.01-.15.01-.14.01-.14.01-.14.02-.14.01-.13.01-.14.02-.14.01-.14.01zm-4.51 20.02.09.03.29.08.29.08.29.08.3.07.3.07.3.07.3.07.3.06.3.06.31.05.31.06.31.05.31.05.31.04.32.04.32.04.32.04.32.03.33.03.33.03.33.02.33.02.34.02.34.01.34.01.34.01.35.01h.7l.35-.01h.34l.34-.01.34-.02.33-.01.33-.02.33-.02.33-.03.32-.03.32-.03.32-.03.32-.04.31-.04.31-.04.31-.05.31-.05.3-.05.3-.06.3-.05.3-.07.3-.06.29-.07.3-.07.29-.08.29-.08.29-.08.29-.08.08-.03c-2.28-.9-5.45-1.47-8.96-1.47-3.47 0-6.62.56-8.9 1.45zm.62-1.69.01.07-1.04.33c-.1.04-.21.09-.31.13l.1.42c5.36-2.42 13.72-2.43 19.08.01l.09-.42c-.11-.05-.22-.09-.33-.14l-1.04-.33.01-.07c-5.02-1.71-11.55-1.71-16.57 0zm-.41-2.02.22 1.09c2.24-.8 5.21-1.29 8.47-1.29 3.25 0 6.21.48 8.44 1.27l.18-1.1c-2.26-.74-5.29-1.19-8.62-1.19-3.36 0-6.43.46-8.69 1.22zm-.23-1.57.01.04-.7.22-.21.09v-.02l-.63.2.15.72 1.05-.38c.12-.04.24-.09.36-.13l.04-.01c2.27-.79 5.4-1.28 8.85-1.28 4.19 0 7.91.72 10.19 1.82l.27-.74-.57-.18-.01.02c-.09-.04-.17-.07-.26-.11l-.7-.22.01-.04c-2.28-.8-5.44-1.3-8.93-1.3-3.48 0-6.64.5-8.92 1.3zm17.27-1.08c.26.07.51.16.74.24l.3-1.56c-.22-.06-.44-.12-.66-.17l-.38 1.49zm-1.66-2.86c1 .18 1.95.4 2.87.66l.3-1.59c-.91-.26-1.87-.5-2.86-.69l-.31 1.62zm2.72-1.99.62.18.34-1.79c-.2-.07-.41-.13-.61-.19l-.35 1.8zm-18-2.13c-.61.16-1.2.33-1.77.52l.34 1.79c.59-.18 1.21-.34 1.83-.49l-.4-1.82zm2.39 2.36c-1.27.21-2.5.49-3.65.83l.3 1.58c1.14-.32 2.34-.58 3.6-.78l-.25-1.63zm-1.51 2.89c-.57.12-1.13.26-1.67.41l.3 1.56c.49-.18 1.02-.34 1.59-.49l-.22-1.48zm15.4-6.37c.99.23 1.94.49 2.84.8l.32-1.7c-.26-.08-.53-.17-.8-.25l.18-.88c.27.08.53.17.79.25l.45-2.34-.06-.02-.14-.05-.14-.04-.15-.04-.14-.05-.15-.04-.15-.04-.14-.04-.15-.04-.15-.04-.15-.04-.15-.04-.15-.04-.15-.04-.16-.03-.15-.04-.15-.04-.16-.03-.1-.03-.52 3.52-.31-.04-.26 1.37zm-14.46-1.53-1.49.2-.51-3.52-.1.03-.16.03-.15.04-.15.04-.16.03-.15.04-.15.04-.15.04-.15.04-.15.04-.15.04-.14.04-.15.04-.15.04-.14.05-.15.04-.14.04-.14.05-.06.02.45 2.34c.34-.11.69-.23 1.05-.33l.17.88c-.36.11-.71.22-1.05.33l.32 1.7c1.22-.42 2.55-.76 3.94-1.02l-.19-1.31zm6.84 51.01c3.85 0 7.17-.49 10.33-1.62l.59-2.69-1.4-.45.19-.95 1.4.51.63-2.67-1.59-.5L99 82.59c-1.52-.54-3.18-.98-4.94-1.32l-.53 3.6-1.9-.25.24-3.7c-1.48-.2-3.03-.32-4.62-.35v3.67H85.22v-3.67c-1.59.03-3.14.15-4.62.35l.24 3.7-1.91.25-.52-3.6c-1.76.34-3.42.78-4.94 1.32l2.54 13.33-1.58.5.63 2.67 1.4-.51.19.95-1.4.45.65 2.69c3.17 1.06 6.54 1.62 10.4 1.62zm-4.46-22.4-.04.01.24 3.68-1.53.2.13 1.28c.54-.09 1.1-.16 1.66-.22v.89a30.9 30.9 0 0 0-3.61.59l.32 1.87c1.05-.22 2.15-.38 3.29-.5v.93c-.41.04-.82.09-1.22.14l.17 1.66c.35-.05.7-.09 1.05-.13v.93c-.94.1-1.85.23-2.74.39l.15 1.46c1.16-.24 2.43-.43 3.79-.53v-4.48c0-1.61 1.19-2.92 2.8-2.92h.12c1.61 0 2.67 1.31 2.67 2.92v4.51c1.59.14 3.18.39 4.54.72l.3-1.47c-1.12-.25-2.3-.44-3.51-.57v-.93c.52.06 1.03.13 1.53.2l.23-1.63c-.57-.1-1.16-.18-1.76-.24v-.93c1.49.16 2.92.41 4.27.74l.26-1.86a32.51 32.51 0 0 0-4.53-.84v-.9c.87.1 1.71.23 2.52.39l.18-1.31-2.69-.36.24-3.68-.04-.01-.14-.01-.14-.01-.14-.02-.14-.01-.14-.01-.14-.01-.14-.02-.14-.01-.14-.01-.14-.01-.14-.01-.14-.01h-.14l-.15-.01-.14-.01-.14-.01v3.63h-4.3v-3.63l-.13.01-.14.01-.15.01h-.14l-.14.01-.14.01-.14.01-.15.01-.14.01-.14.02-.14.01-.14.01-.13.01-.14.02-.14.01-.14.01zm-4.51 20.02.09.03.29.08.29.08.29.08.3.07.3.07.3.07.3.07.3.06.3.06.31.06.31.05.31.05.31.05.31.04.32.04.32.04.32.04.32.03.33.03.33.03.33.02.33.02.34.02.34.01.34.02h.34l.35.01h.7l.35-.01h.34l.34-.01.34-.02.33-.01.33-.02.33-.02.33-.03.32-.03.32-.03.32-.03.32-.04.31-.04.31-.04.31-.05.31-.05.3-.05.3-.05.3-.06.3-.06.3-.07.29-.07.3-.07.29-.08.29-.07.29-.09.29-.08.08-.03c-2.28-.9-5.45-1.46-8.96-1.46-3.47 0-6.62.55-8.9 1.44zm.62-1.69.01.07-1.04.33c-.1.04-.21.09-.31.13l.1.42c5.36-2.42 13.72-2.42 19.08.01l.09-.41-.33-.15-1.04-.33.01-.07c-5.02-1.71-11.55-1.71-16.57 0zm-.41-2.02.22 1.09C80 98.49 82.97 98 86.23 98c3.25 0 6.21.49 8.44 1.27l.18-1.1c-2.26-.74-5.29-1.19-8.62-1.19-3.36 0-6.43.47-8.69 1.22zm-.23-1.57.01.04-.7.22-.21.09v-.02l-.63.2.15.72 1.05-.38c.12-.04.24-.08.36-.13l.04-.01c2.27-.79 5.4-1.27 8.85-1.27 4.19 0 7.91.71 10.19 1.81l.27-.74-.57-.18-.01.02c-.09-.03-.17-.07-.26-.11l-.7-.22.01-.04c-2.28-.8-5.44-1.3-8.93-1.3-3.48 0-6.64.5-8.92 1.3zm17.27-1.08c.26.07.51.16.74.24l.3-1.56c-.22-.06-.44-.12-.66-.17l-.38 1.49zm-1.66-2.86c1 .18 1.95.4 2.87.66l.3-1.59c-.91-.26-1.87-.5-2.86-.69l-.31 1.62zm2.72-1.99.62.18.34-1.79c-.2-.06-.41-.13-.61-.19l-.35 1.8zm-18-2.13c-.61.16-1.2.33-1.77.52l.34 1.79c.59-.18 1.21-.34 1.83-.49l-.4-1.82zm2.39 2.36c-1.27.21-2.5.49-3.65.83l.3 1.58c1.14-.31 2.34-.58 3.6-.78l-.25-1.63zm-1.51 2.89c-.57.12-1.13.26-1.67.41l.3 1.56c.49-.18 1.02-.34 1.59-.49l-.22-1.48zm15.4-6.37c.99.23 1.94.5 2.84.8l.32-1.7c-.26-.08-.53-.17-.8-.25l.18-.88c.27.08.53.17.79.26l.45-2.35-.06-.02-.14-.04-.14-.05-.15-.04-.14-.04-.15-.05-.15-.04-.14-.04-.15-.04-.15-.04-.15-.04-.15-.04-.15-.04-.15-.04-.16-.03-.15-.04-.15-.04-.16-.03-.1-.02-.52 3.51-.31-.04-.26 1.37zm-14.46-1.52-1.49.19-.51-3.51-.1.02-.16.03-.15.04-.15.04-.16.03-.15.04-.15.04-.15.04-.15.04-.15.04-.15.04-.14.04-.15.04-.15.05-.14.04-.15.04-.14.05-.14.04-.06.02.45 2.34c.34-.11.69-.22 1.05-.33l.17.88c-.36.11-.71.22-1.05.33l.32 1.7c1.22-.42 2.55-.76 3.94-1.02l-.19-1.3zm6.84 49.42c3.85 0 7.17-.5 10.33-1.62l.59-2.7-1.4-.44.19-.95 1.4.5.63-2.66-1.59-.51L99 113.64c-1.52-.54-3.18-.98-4.94-1.32l-.53 3.61-1.9-.26.24-3.7c-1.48-.19-3.03-.31-4.62-.35v3.67H85.22v-3.67c-1.59.04-3.14.16-4.62.35l.24 3.7-1.91.26-.52-3.61c-1.76.34-3.42.78-4.94 1.32l2.54 13.33-1.58.51.63 2.66 1.4-.5.19.95-1.4.44.65 2.7c3.17 1.06 6.54 1.62 10.4 1.62zm-4.46-22.4h-.04l.24 3.68-1.53.21.13 1.27c.54-.09 1.1-.16 1.66-.22v.89c-1.25.14-2.46.34-3.61.59l.32 1.87c1.05-.21 2.15-.38 3.29-.5v.93c-.41.04-.82.09-1.22.15l.17 1.65c.35-.05.7-.09 1.05-.12v.92c-.94.1-1.85.23-2.74.4l.15 1.46c1.16-.25 2.43-.43 3.79-.54v-4.48c0-1.61 1.19-2.92 2.8-2.92h.12c1.61 0 2.67 1.31 2.67 2.92v4.51c1.59.15 3.18.39 4.54.72l.3-1.47c-1.12-.24-2.3-.43-3.51-.57v-.93c.52.06 1.03.13 1.53.21l.23-1.64c-.57-.09-1.16-.17-1.76-.24v-.93c1.49.17 2.92.42 4.27.74l.26-1.86a32.51 32.51 0 0 0-4.53-.84v-.89c.87.1 1.71.23 2.52.38l.18-1.31-2.69-.36.24-3.68h-.04l-.14-.02-.14-.01-.14-.01-.14-.02-.14-.01-.14-.01-.14-.01-.14-.01-.14-.01-.14-.01-.14-.01-.14-.01-.14-.01-.15-.01-.14-.01h-.14v3.62h-4.3v-3.62h-.13l-.14.01-.15.01-.14.01-.14.01-.14.01-.14.01-.15.01-.14.01-.14.01-.14.01-.14.01-.13.02-.14.01-.14.01-.14.02zm-4.51 20.01.09.03.29.08.29.08.29.08.3.07.3.08.3.06.3.07.3.06.3.06.31.06.31.05.31.05.31.05.31.05.32.04.32.04.32.03.32.04.33.03.33.02.33.03.33.02.34.01.34.02.34.01.34.01H87l.34-.01.34-.01.34-.01.33-.02.33-.02.33-.02.33-.02.32-.03.32-.03.32-.04.32-.03.31-.04.31-.05.31-.04.31-.05.3-.05.3-.06.3-.06.3-.06.3-.07.29-.07.3-.07.29-.07.29-.08.29-.08.29-.09.08-.03c-2.28-.9-5.45-1.46-8.96-1.46-3.47 0-6.62.55-8.9 1.44zm.62-1.68.01.06-1.04.33c-.1.05-.21.09-.31.14l.1.41c5.36-2.42 13.72-2.42 19.08.02l.09-.42-.33-.15-1.04-.33.01-.06c-5.02-1.72-11.55-1.72-16.57 0zm-.41-2.03.22 1.09c2.24-.8 5.21-1.28 8.47-1.28 3.25 0 6.21.48 8.44 1.27l.18-1.1c-2.26-.74-5.29-1.2-8.62-1.2-3.36 0-6.43.47-8.69 1.22zm-.23-1.57.01.04-.7.23c-.07.03-.14.05-.21.08v-.02l-.63.21.15.72 1.05-.38c.12-.05.24-.09.36-.13l.04-.02c2.27-.78 5.4-1.27 8.85-1.27 4.19 0 7.91.72 10.19 1.82l.27-.74-.57-.19-.01.03c-.09-.04-.17-.08-.26-.11l-.7-.23.01-.04c-2.28-.8-5.44-1.3-8.93-1.3-3.48 0-6.64.5-8.92 1.3zm17.27-1.08c.26.08.51.16.74.24l.3-1.55-.66-.18-.38 1.49zm-1.66-2.86c1 .18 1.95.4 2.87.66l.3-1.58a29.9 29.9 0 0 0-2.86-.69l-.31 1.61zm2.72-1.98c.21.05.41.11.62.17l.34-1.78c-.2-.07-.41-.14-.61-.2l-.35 1.81zm-18-2.14c-.61.16-1.2.34-1.77.53l.34 1.78c.59-.17 1.21-.34 1.83-.48l-.4-1.83zm2.39 2.36c-1.27.22-2.5.5-3.65.84l.3 1.58c1.14-.32 2.34-.59 3.6-.79l-.25-1.63zm-1.51 2.89c-.57.13-1.13.27-1.67.41l.3 1.56c.49-.17 1.02-.34 1.59-.49l-.22-1.48zm15.4-6.36c.99.22 1.94.49 2.84.79l.32-1.69c-.26-.09-.53-.18-.8-.26l.18-.88c.27.09.53.17.79.26l.45-2.35-.06-.02-.14-.04-.14-.04-.15-.05-.14-.04-.15-.04-.15-.05-.14-.04-.15-.04-.15-.04-.15-.04-.15-.04-.15-.03-.15-.04-.16-.04-.15-.04-.15-.03-.16-.04-.1-.02-.52 3.52-.31-.05-.26 1.38zm-14.46-1.53-1.49.2-.51-3.52-.1.02-.16.04-.15.03-.15.04-.16.04-.15.04-.15.03-.15.04-.15.04-.15.04-.15.04-.14.04-.15.05-.15.04-.14.04-.15.05-.14.04-.14.04-.06.02.45 2.35c.34-.12.69-.23 1.05-.34l.17.89c-.36.1-.71.21-1.05.33l.32 1.69c1.22-.41 2.55-.76 3.94-1.02l-.19-1.3zm-30.87-6.6.18 2.84c.25 2.95.79 5.94 1.92 8.34h20.57l-.06-11.18H48.59zm-1.6-25.19.75 11.74h23.4l-.05-11.74h-24.1zm-1.57-24.63.76 11.94h24.85l-.06-11.94H45.42zm78.53 49.82-.18 2.84c-.25 2.95-.79 5.94-1.92 8.34h-20.57l.06-11.18h22.61zm1.6-25.19-.75 11.74h-23.4l.05-11.74h24.1zm1.57-24.63-.76 11.94h-24.85l.06-11.94h25.55zm-11.56 107.86c9.66 1.41 19 2.51 26.63 3.31 7.16.76 14.55-.15 16.2-2.63 2.75-4.13 4.82-10.05 5.74-19.06-1.02 3.07-4.55 5.34-9.78 5.3-23.48-.18-45.98-4.97-68.3-4.97s-44.45 4.79-67.93 4.97c-5.23.04-8.76-2.23-9.78-5.3.92 9.01 2.99 14.93 5.74 19.06 1.65 2.48 9.04 3.39 16.2 2.63 7.63-.8 16.96-1.96 26.63-3.31 11.6-1.61 20.52-1.85 29.51-1.85 8.99 0 18.04.24 29.14 1.85zm45.84-38.04c-2.48 5.05-3.82 10.27-3.48 15.72-11.5-4.59-35.89-5.99-41.59.46-.15-7.56.91-13.08 3.97-16.24 2.48-2.56 7.68-3.31 13.65-3.47 7.18-.21 16.37 1 27.45 3.53zm-150.33 0c2.48 5.05 3.81 10.27 3.47 15.72 11.51-4.59 35.9-5.99 41.6.46.15-7.56-.91-13.08-3.97-16.24-2.48-2.56-7.68-3.31-13.65-3.47-7.18-.21-16.37 1-27.45 3.53zm15.36-22.43c-1.02 1.4-2.93 2.34-5.11 2.34-2.74 0-5.04-1.48-5.71-3.47 1.07 1.55 3.34 2.63 5.96 2.63 1.92 0 3.65-.58 4.86-1.5zm9.51-45.07c-.32-.2-.65-.39-.98-.58.29.22.57.43.85.66l.13-.08zm1.31.92c-.22-.19-.46-.36-.7-.53l-.22.12c.22.19.43.39.63.59l.29-.18zm1.19 1.31c-.17-.26-.36-.51-.57-.73l-.4.18c.2.25.37.51.53.78.14-.08.29-.15.44-.23zm1.89 55.62c-.16-.96-2.82-2.1-2.93-.81.06.54.5.81 1.1.73.61-.08 1.38-.52 1.83.08zm-12.46-4.93c.65-.26 1.27-.59 1.86-.97.07 1.67 1.68 3.29 3.67 3.66-2.22 0-4.11-.77-5.53-2.69zm5.73-2.8c1.58.26 2.87 1.56 2.87 2.89s-1.29 2.2-2.87 1.94c-1.58-.27-2.87-1.57-2.87-2.9 0-1.33 1.29-2.19 2.87-1.93zm5.36-1.68c-1.93-3.64-5.11-2.23-7.29-1.75 2.08.26 3.84-.43 5.32.89 1.08.96 1.54 2.17.41 3.35-1.23-1.2-2.65-1.69-4.2-1.74-4.64-.14-4.52 4.76-15.25 4.36 1.57.35 2.97 1.27 8.05 0 2.6 2.94 6.36 3.13 8.43 3.03 2.21-.1 4.81-1.45 3.6-4.84 1.51-.69 2.45-1.7 2.8-3.06 1.67 1.23 1.44 3.56-1.24 5.68 1.68-.13 2.86-.92 3.55-2.37 1.68.53 1.52 2.73-1.06 5.05 1.58-.4 2.66-1.23 3.24-2.62 1.16-.13 1.31.72 1.31 1.17.02 2.13-3.51 4.09-5.79 4.57-2.26.47-4.44-.14-6.62-.06-1.41.06-2.45.58-2.47 1.47-.01.3.12.65.42 1.08.39-1.56 3.22-1.75 3.43-.94.17.57-2.85 1.85-7.03 2.04-4.45.19-9.91-1.23-14.89-.84-4.96.39-7.98 1.43-8.03 3.95-.01.97.58 2.36 1.64 3.71-3.06-1.13-4.06-3.37-4.12-4.84-.09-2.46 2.47-7.89 10.79-6.2-2.12-2.12-.91-2.95-1.24-4.55 5.65-.89 7.37 7.25 13.21 4.43-5.13.68-7.96-7.3-14.65-4.68.94 1.35-.56 2.14.56 3.93-.29-.08-.58-.23-.87-.31-4.66-4.58-6.34-10.01-6.21-15.1.19-7.75 1.97-13.48 11.11-21.37 5.62-4.86 20.55-11.94 19.46-17.02-.26-1.2-1.22-2.63-3.59-3.22.13 4.75-4.83 5.46-9.9 2.73-9.78-5.26-14.25 2.64-7.96 6.36-4.56.08-5.27-3.87-3.55-6.9-1.48-1.49-.52-3.43.32-4.36 1.14-1.28 4.05-1.77 6.29-1.38 3.77.64 5.77 3.64 7.82 3.89.91.11 1.67-.42 1.92-.84 1.1-1.87-1.04-2.37-3.88-2.46-1.65-.05-4.46-1.53-4.84-4.38 1.66 2.22 2.73-1.23 4.46-1.33 2.09-.12 3.16 2.77 5.09 4.03 1.4.92 2.94.92 3.55-.15.44-.77.04-1.91-1.85-3.12-1.33-.85-4.66-.71-5.82-1.98-.57-.62-.8-1.31-.4-2.49.35-1.04-.4-2.19-1.59-2.96 3.84-2.92 7.17 2.13 8.47 3.61 1.59 1.81 2.88.63 3.22.24.4-.44 1.05-1.77-1.07-2.78-2.12-1.02-7.32-2.24-9.22-5.17-.75-1.15-.5-2.96-.12-4.84 1 .78 1.11 1.17 2.33 2.28.07-1.63.28-3.1 1.08-3.86.72-.68 1.73-.97 3.03-.81-1.51 1.03-2.34 2.13-2.37 3.33-.05 1.86 1.25 3.96 6.04 6.33 1.97.98 6.16 3.21 6.26 5.93.09 2.46-2.29 3.8-4.38 4.63 5.28 2.67 7.52 5.71 8.09 8.96 1.24 7.12-8.92 14.72-17.79 22.54 4.58-8.02 18.28-13.9 13.73-24.05-.17.05-.34.11-.51.17 3.98 11.34-12.94 16.38-19.02 29.68-1.76 1.24-2.59 3-2.31 5.38-.99.06-2.02-.56-1.72-2.14-3.02 1-3.48 4.38-1.3 6.33-2.56 2.43-2.03 6.68 2.55 7.85-.8.7-1.24 1.65-1.3 2.84.7.07 1.3.34 1.95.51-.04-1.48.37-2.66 1.44-3.39-3.3-.68-4.01-2.3-4.23-3.74-.2-1.27.25-3.01 2.19-4.25-1.4-1.07-3.21-2.23-1.4-4.04.7 1.03 1.71 1.14 2.74.88-.64-4.34 1.92-5.9 4.7-4.88-2.92 1.24-3.42 3.47-3.41 4.84.01 2.29 1.84 6.33 9.53 4.06 2.36-.7 6.49-1.35 8.8.01 1.69.99 2.82 3.27 1.56 5.69zm107.08-3.37c1.02 1.4 2.93 2.34 5.11 2.34 2.74 0 5.04-1.48 5.71-3.47-1.07 1.55-3.34 2.63-5.96 2.63-1.92 0-3.65-.58-4.86-1.5zm-9.51-45.07c.32-.2.65-.39.98-.58-.29.22-.58.43-.85.66l-.13-.08zm-1.31.92c.22-.19.46-.36.7-.53l.22.12c-.22.19-.43.39-.63.59l-.29-.18zm-1.19 1.31c.17-.26.36-.51.57-.73l.4.18c-.2.25-.38.51-.53.78-.15-.08-.29-.15-.44-.23zm-1.9 55.62c.17-.96 2.83-2.1 2.93-.81-.05.54-.49.81-1.09.73-.61-.08-1.38-.52-1.84.08zm12.47-4.93c-.65-.26-1.27-.59-1.86-.97-.07 1.67-1.68 3.29-3.67 3.66 2.22 0 4.11-.77 5.53-2.69zm-5.73-2.8c-1.58.26-2.87 1.56-2.87 2.89s1.29 2.2 2.87 1.94c1.58-.27 2.87-1.57 2.87-2.9 0-1.33-1.29-2.19-2.87-1.93zm-5.36-1.68c1.93-3.64 5.11-2.23 7.29-1.75-2.08.26-3.85-.43-5.32.89-1.08.96-1.54 2.17-.42 3.35 1.23-1.2 2.66-1.69 4.21-1.74 4.64-.14 4.52 4.76 15.24 4.36-1.56.35-2.97 1.27-8.04 0-2.6 2.94-6.36 3.13-8.43 3.03-2.21-.1-4.81-1.45-3.6-4.84-1.52-.69-2.45-1.7-2.8-3.06-1.67 1.23-1.44 3.56 1.24 5.68-1.68-.13-2.87-.92-3.55-2.37-1.68.53-1.52 2.73 1.06 5.05-1.58-.4-2.66-1.23-3.24-2.62-1.17-.13-1.31.72-1.31 1.17-.02 2.13 3.51 4.09 5.79 4.57 2.26.47 4.44-.14 6.62-.06 1.41.06 2.45.58 2.47 1.47.01.3-.12.65-.42 1.08-.39-1.56-3.22-1.75-3.43-.94-.17.57 2.84 1.85 7.03 2.04 4.45.19 9.91-1.23 14.89-.84 4.96.39 7.98 1.43 8.02 3.95.02.97-.57 2.36-1.64 3.71 3.07-1.13 4.07-3.37 4.13-4.84.09-2.46-2.48-7.89-10.8-6.2 2.12-2.12.92-2.95 1.25-4.55-5.65-.89-7.38 7.25-13.22 4.43 5.14.68 7.96-7.3 14.65-4.68-.93 1.35.57 2.14-.56 3.93.29-.08.59-.23.88-.31 4.66-4.58 6.34-10.01 6.21-15.1-.19-7.75-1.98-13.48-11.11-21.37-5.63-4.86-20.56-11.94-19.46-17.02.26-1.2 1.22-2.63 3.59-3.22-.13 4.75 4.83 5.46 9.9 2.73 9.78-5.26 14.24 2.64 7.95 6.36 4.57.08 5.28-3.87 3.56-6.9 1.48-1.49.52-3.43-.32-4.36-1.14-1.28-4.05-1.77-6.29-1.38-3.77.64-5.77 3.64-7.83 3.89-.9.11-1.66-.42-1.91-.84-1.1-1.87 1.04-2.37 3.87-2.46 1.66-.05 4.47-1.53 4.85-4.38-1.66 2.22-2.74-1.23-4.46-1.33-2.1-.12-3.16 2.77-5.09 4.03-1.41.92-2.95.92-3.56-.15-.43-.77-.03-1.91 1.86-3.12 1.33-.85 4.66-.71 5.82-1.98.56-.62.79-1.31.4-2.49-.36-1.04.4-2.19 1.59-2.96-3.84-2.92-7.17 2.13-8.47 3.61-1.6 1.81-2.88.63-3.22.24-.4-.44-1.05-1.77 1.06-2.78 2.12-1.02 7.33-2.24 9.23-5.17.75-1.15.5-2.96.12-4.84-1 .78-1.11 1.17-2.33 2.28-.07-1.63-.28-3.1-1.09-3.86-.71-.68-1.72-.97-3.02-.81 1.51 1.03 2.34 2.13 2.37 3.33.05 1.86-1.25 3.96-6.04 6.33-1.97.98-6.17 3.21-6.26 5.93-.09 2.46 2.29 3.8 4.37 4.63-5.27 2.67-7.51 5.71-8.08 8.96-1.25 7.12 8.92 14.72 17.79 22.54-4.58-8.02-18.28-13.9-13.73-24.05.17.05.34.11.51.17-3.98 11.34 12.94 16.38 19.02 29.68 1.76 1.24 2.59 3 2.3 5.38 1 .06 2.02-.56 1.73-2.14 3.02 1 3.48 4.38 1.3 6.33 2.56 2.43 2.03 6.68-2.55 7.85.8.7 1.24 1.65 1.3 2.84-.7.07-1.3.34-1.95.51.04-1.48-.37-2.66-1.44-3.39 3.29-.68 4.01-2.3 4.23-3.74.2-1.27-.26-3.01-2.19-4.25 1.39-1.07 3.21-2.23 1.39-4.04-.69 1.03-1.7 1.14-2.74.88.65-4.34-1.91-5.9-4.69-4.88 2.92 1.24 3.41 3.47 3.41 4.84-.01 2.29-1.84 6.33-9.53 4.06-2.36-.7-6.49-1.35-8.8.01-1.69.99-2.83 3.27-1.56 5.69zM12.87 145.14c.03 1.36.02 2.63-.29 3.99 8.15-3.49 19.84-5.07 26.9-5.38 6.52-.29 15.73 1.85 15.86 4.77.05 1.12-.88 1.83-3.29 2.27-15.21.97-24.89 3.11-31.68 3-7.71-.12-10.83-1.92-11.03-4.89-.06-.96.39-2.37 3.53-3.76zm146.73 0c-.03 1.36-.02 2.63.29 3.99-8.15-3.49-19.84-5.07-26.9-5.38-6.52-.29-15.73 1.85-15.86 4.77-.06 1.12.88 1.83 3.29 2.27 15.21.97 24.89 3.11 31.68 3 7.7-.12 10.83-1.92 11.03-4.89.06-.96-.39-2.37-3.53-3.76zM47.8 97.88l.73 11.56H71.2l-.06-11.56H47.8zm-1.56-24.44.69 10.8h24.15l-.05-10.8H46.24zm24.67-25.05c-8.55.29-17.21 1.01-26.09 2.66l.54 8.57h25.6l-.05-11.23zm-19.73 74.12c3.42 6.07 10.25 9.69 20.13 11.55l-.05-11.55H51.18zm73.56-24.63-.73 11.56h-22.67l.05-11.56h23.35zm1.56-24.44-.69 10.8h-24.15l.05-10.8h24.79zm-24.67-25.05c8.55.29 17.2 1.01 26.09 2.66l-.54 8.57h-25.61l.06-11.23zm19.73 74.12c-3.42 6.07-10.25 9.69-20.13 11.55l.05-11.55h20.08zm-67.83-90.6.69 2.26c.21-.05.42-.09.62-.14l-.4-2.3c-.31.06-.61.12-.91.18zM51.5 14.33l-.43-2.46-3.53.59.78 2.54c1.04-.24 2.09-.46 3.18-.67zm19.96-6.12-.2-5.6c-.92.07-1.84.15-2.77.23l.11 3.71-1.03.12.1 1.84c1.24-.11 2.51-.21 3.79-.3zm7.8 22.85L78.6 8.9l-7.71.34.18 2.55c.61-.05 1.23-.09 1.85-.13l.03.67c-.61.04-1.23.09-1.83.13l.18 2.61c.59-.04 1.18-.09 1.78-.13l.03.68c-.59.04-1.18.08-1.76.13l.19 2.69c.56-.04 1.13-.09 1.7-.12l.04.67c-.57.04-1.13.08-1.69.13l.19 2.75 1.63-.12.03.68c-.54.03-1.07.07-1.61.12l.21 2.94c.51-.04 1.03-.07 1.55-.11l.03.68c-.51.03-1.02.07-1.53.11l.17 2.44c.49-.04.98-.08 1.48-.11l.03.67-1.46.12.15 2.18c2.22-.18 4.49-.31 6.8-.41zM65.18 9.43l.28 2.85c1.33-.14 2.68-.26 4.06-.37l-.21-2.86c-1.4.11-2.78.24-4.13.38zm2.95 3.28.13 2.61c.5-.04 1-.09 1.5-.13l-.19-2.6-1.44.12zm-2.16 3.53.26 2.68c1.24-.13 2.5-.25 3.78-.36l-.2-2.69c-1.3.11-2.58.23-3.84.37zm2.69 3.13.14 2.75c.49-.04.97-.09 1.46-.13l-.2-2.75c-.47.04-.93.09-1.4.13zM64.5 32.33c.88-.12 1.76-.23 2.66-.33l-.94-6.92c-.09-.73-.77-1.25-1.5-1.15-.73.1-1.25.77-1.15 1.5l.93 6.9zm1.88-9.97c.52-.05 1.04-.11 1.57-.16l-.14-2.75c-.79.08-1.57.16-2.34.25l-.03-.26h-.02l-.3-3.11h-.03l-.08-.68c.79-.09 1.59-.17 2.39-.25l-.13-2.61c-.86.08-1.71.17-2.56.26l-.02-.25-.04.01-.32-3.29c-.01 0-.01.01-.02.01l-.07-.69c.85-.09 1.71-.18 2.57-.26l-.09-1.81-1.11.13-.39-3.72c-.94.1-1.87.22-2.8.33l.27 3.66-2.53.41-.55-3.69c-.65.09-1.31.19-1.97.29l.68 5.4c.39-.06.78-.11 1.18-.17l.07.7c-.39.05-.77.11-1.16.17l.36 2.82c.37-.05.74-.11 1.12-.16l.07.7c-.37.05-.74.11-1.1.16l.33 2.58 1.06-.15.08.7-1.06.15.34 2.67c.34-.05.67-.1 1.01-.14l.08.7c-.34.04-.67.09-1 .14l1.57 12.36c.23-.04.46-.07.69-.11l-1-7.4a3.3 3.3 0 0 1 2.82-3.71c.98-.13 1.91.18 2.6.77zm1.32 3.53c.93-.1 1.87-.19 2.83-.27l-.22-2.95c-1.14.1-2.26.21-3.36.33.28.41.48.89.55 1.42l.2 1.47zm.41 3.1c.13-.01.25-.02.37-.04l-.12-2.44-.57.06.32 2.42zm1.26.56v.01l-.15.01c-.34.03-.68.07-1.01.1l.29 2.18c.81-.09 1.64-.17 2.47-.25l-.16-2.18c-.48.04-.96.09-1.44.13zm-.16-3.12.13 2.44c.47-.05.94-.09 1.42-.13l-.18-2.44c-.46.04-.91.08-1.37.13zm-12.85 4.2-.42-2.39c-1.14.21-2.25.43-3.34.66l.71 2.31c1-.2 2.01-.4 3.05-.58zm-2.58-2.72-.5-2.87c-.6.11-1.18.23-1.75.36l.85 2.79c.47-.1.93-.19 1.4-.28zm1.67-4.02-.46-2.66c-1.54.28-3.03.58-4.47.9l.79 2.56c1.34-.28 2.72-.55 4.14-.8zm-2.79-2.96-.46-2.62c-.91.18-1.81.37-2.68.57l.78 2.54c.77-.17 1.56-.33 2.36-.49zm1.95-3.81-.45-2.56c-1.95.36-3.83.74-5.62 1.15l.76 2.46c1.7-.38 3.47-.73 5.31-1.05zm.4-2.71.44 2.56.35-.06.09.71c-.97.17-1.92.34-2.85.52l.46 2.63c.9-.17 1.82-.34 2.75-.49l.1.71c-.18.03-.35.06-.52.09l.47 2.66c.13-.02.27-.04.41-.07l.09.71c-.91.16-1.8.32-2.68.49l.5 2.88c.85-.16 1.7-.31 2.57-.46l.1.71-.51.09.42 2.39c.14-.03.28-.05.41-.07l.1.71c-.83.14-1.64.29-2.43.44l.4 2.29c1.36-.29 2.77-.56 4.23-.81l-2.82-22.19-5.18.87.43 2.44c.99-.18 1.99-.36 3.02-.53l.09.71c-.15.02-.3.05-.44.07zm-11.99 1.93-.54-2.69c-.34.1-.67.2-.99.3l.54 2.68c.33-.09.66-.19.99-.29zm1.43 6.54-.52-2.56c-.37.11-.73.21-1.09.33l.52 2.55c.36-.11.72-.22 1.09-.32zm0 5.73 1.59 7.86c.71-.25 1.45-.49 2.21-.72l-1.52-6.52a1.34 1.34 0 0 0-1.61-1c-.26.06-.49.2-.67.38zm.31-8.53.52 2.57c.51-.14 1.02-.28 1.55-.41l.22.73c-1.23.32-2.41.65-3.54 1l.41 2.03c.02-.01.03-.01.05-.01 1.77-.41 3.55.7 3.96 2.46l1.61 6.92c.93-.27 1.89-.52 2.88-.77l-6.6-22.48.04-.01-.05-.16c2.36-.58 4.89-1.11 7.56-1.58l-.82-5.36c-.48.08-.96.17-1.44.26l.29 3.7-3.15.54-.58-3.59c-.9.18-1.79.36-2.69.55l.67 3.72-3.1.69-.79-3.72c-.52.12-1.05.24-1.58.36l1.15 5.66c.81-.25 1.65-.49 2.51-.72l.23.73c-.26.07-.51.15-.76.22l.54 2.7 1.02-.27.23.73c-1.01.27-1.98.55-2.91.84l.5 2.46c1.01-.3 2.06-.59 3.15-.87l.22.73c-.44.11-.87.23-1.3.35zm73.93 11.83-.71 2.26c-.2-.05-.41-.09-.62-.14l.41-2.3.92.18zm2.05-17.58.44-2.46 3.56.59-.79 2.54c-1.04-.24-2.11-.46-3.21-.67zm-20.19-6.12.2-5.6c.93.07 1.87.15 2.8.23l-.11 3.71 1.04.12-.1 1.84c-1.26-.11-2.54-.21-3.83-.3zm-7.9 22.85.68-22.16 7.79.34-.18 2.55c-.62-.05-1.24-.09-1.87-.13l-.03.67c.62.04 1.24.09 1.85.13l-.18 2.61c-.6-.04-1.2-.09-1.8-.13l-.03.68c.59.04 1.19.08 1.78.13l-.19 2.69c-.58-.04-1.15-.09-1.73-.12l-.03.67c.57.04 1.14.08 1.71.13l-.2 2.75-1.65-.12-.03.68c.55.03 1.09.07 1.63.12l-.21 2.94c-.52-.04-1.04-.07-1.57-.11l-.03.68c.52.03 1.04.07 1.55.11l-.17 2.44c-.5-.04-1-.08-1.5-.11l-.03.67 1.48.12-.16 2.18c-2.24-.18-4.53-.31-6.88-.41zm-4.92-.12c-.6-.01-1.2-.01-1.81-.01h-.87v-6.72a1.34 1.34 0 0 1 2.68 0v6.73zM85.92 2.11c.46-.01.91-.01 1.37-.01l.11 4.38 2.9.12.11-4.48 1.63.03-.16 5.79c-.41-.01-.82-.03-1.24-.05l-.01.68c.41.01.82.03 1.23.05l-.08 2.86c-.41-.01-.82-.03-1.23-.05l-.02.68c.42.01.82.03 1.23.05l-.07 2.61c-.4-.02-.81-.03-1.22-.05l-.02.67 1.22.06-.07 2.7-1.22-.06-.02.68 1.22.06-.07 2.76-1.22-.06-.01.68 1.21.06-.08 2.95-1.21-.06-.02.68 1.21.06-.07 2.45c-.4-.03-.8-.05-1.2-.07l-.02.68c.41.02.8.04 1.2.07l-.05 1.98c-.72-.02-1.44-.04-2.17-.05v-7.24c0-1.81-1.49-3.3-3.3-3.3a3.31 3.31 0 0 0-3.3 3.3v7.25c-.61.01-1.22.02-1.83.04l-.05-1.98c.39-.03.79-.05 1.18-.07l-.01-.68c-.4.02-.8.04-1.19.07l-.07-2.45 1.19-.06-.01-.68-1.2.06-.07-2.95 1.19-.06-.01-.68-1.2.06-.08-2.76 1.21-.06-.02-.68-1.21.06-.07-2.7 1.21-.06-.02-.67c-.4.02-.8.03-1.21.05l-.07-2.61c.41-.02.81-.04 1.22-.05l-.02-.68c-.41.02-.81.04-1.21.05l-.08-2.86c.4-.02.81-.04 1.22-.05l-.02-.68c-.41.02-.82.04-1.22.05l-.16-5.79 1.61-.03.11 4.48 2.87-.12.11-4.38c.45 0 .9 0 1.35.01zm-.27 29.82h.54c16.74.05 31.71 2.41 41.58 6.08l-.24 1.02-1.01-.14c-9.92-3.43-24.44-5.6-40.6-5.63-15.97.03-30.33 2.2-40.13 5.63l-1.01.14-.23-1.02c9.76-3.67 24.55-6.03 41.1-6.08zm0 2.33h.54c15.57.05 29.61 2.1 39.44 5.33l-.38 1.88c-9.87-3.18-23.85-5.18-39.33-5.2-15.3.02-29.12 2.02-38.88 5.2l-.37-1.88c9.71-3.23 23.59-5.28 38.98-5.33zm0 3.01h.54c15.27.04 29.07 2.01 38.87 5.14l-.38 1.88c-9.84-3.07-23.58-5-38.76-5.02-15.01.02-28.59 1.95-38.31 5.02l-.38-1.88c9.69-3.13 23.32-5.1 38.42-5.14zM106.9 9.43l-.28 2.85c-1.35-.14-2.72-.26-4.11-.37l.21-2.86c1.42.11 2.81.24 4.18.38zm-2.98 3.28-.13 2.61c-.51-.04-1.01-.09-1.52-.13l.19-2.6 1.46.12zm2.18 3.53-.26 2.68c-1.26-.13-2.53-.25-3.82-.36l.2-2.69c1.31.11 2.61.23 3.88.37zm-2.72 3.13-.15 2.75c-.48-.04-.98-.09-1.47-.13l.21-2.75c.47.04.94.09 1.41.13zm4.21 12.96c-.89-.12-1.78-.23-2.69-.33l.94-6.92c.1-.73.79-1.25 1.53-1.15.74.1 1.26.77 1.16 1.5l-.94 6.9zm-1.9-9.97c-.53-.05-1.06-.11-1.59-.16l.14-2.75c.8.08 1.59.16 2.37.25l.03-.26h.02l.3-3.11h.04l.07-.68c-.8-.09-1.6-.17-2.42-.25l.13-2.61c.88.08 1.74.17 2.59.26l.03-.25.04.01.32-3.29c.01 0 .01.01.02.01l.07-.69c-.86-.09-1.72-.18-2.6-.26l.09-1.81 1.12.13.4-3.72c.95.1 1.89.22 2.84.33l-.28 3.66 2.56.41.55-3.69c.67.09 1.33.19 2 .29l-.69 5.4c-.4-.06-.79-.11-1.19-.17l-.08.7c.4.05.79.11 1.18.17l-.36 2.82c-.38-.05-.76-.11-1.14-.16l-.07.7c.37.05.74.11 1.12.16l-.34 2.58-1.07-.15-.08.7 1.06.15-.34 2.67c-.34-.05-.68-.1-1.02-.14l-.08.7c.34.04.68.09 1.01.14l-1.59 12.36c-.23-.04-.46-.07-.69-.11l1.01-7.4c.25-1.8-1.04-3.47-2.86-3.71-.98-.13-1.92.18-2.62.77zm-1.33 3.53c-.95-.1-1.9-.19-2.87-.27l.22-2.95c1.15.1 2.28.21 3.4.33-.29.41-.48.89-.55 1.42l-.2 1.47zm-.43 3.1c-.12-.01-.25-.02-.37-.04l.12-2.44.58.06-.33 2.42zm-1.27.56v.01l.16.01c.34.03.68.07 1.02.1l-.3 2.18c-.82-.09-1.65-.17-2.49-.25l.16-2.18c.48.04.97.09 1.45.13zm.16-3.12-.13 2.44c-.47-.05-.95-.09-1.43-.13l.18-2.44c.46.04.92.08 1.38.13zm13 4.2.43-2.39c1.15.21 2.28.43 3.37.66l-.71 2.31c-1.01-.2-2.04-.4-3.09-.58zm2.61-2.72.51-2.87c.6.11 1.19.23 1.77.36l-.87 2.79c-.46-.1-.93-.19-1.41-.28zm-1.69-4.02.47-2.66c1.56.28 3.07.58 4.52.9l-.8 2.56c-1.35-.28-2.75-.55-4.19-.8zm2.82-2.96.47-2.62c.92.18 1.83.37 2.71.57l-.79 2.54c-.78-.17-1.58-.33-2.39-.49zm-1.97-3.81.46-2.56c1.97.36 3.87.74 5.68 1.15l-.77 2.46c-1.71-.38-3.5-.73-5.37-1.05zm-.4-2.71-.45 2.56-.35-.06-.1.71c.98.17 1.95.34 2.89.52l-.47 2.63c-.91-.17-1.83-.34-2.78-.49l-.09.71.52.09-.47 2.66c-.14-.02-.28-.04-.42-.07l-.1.71c.93.16 1.83.32 2.72.49l-.51 2.88c-.85-.16-1.72-.31-2.6-.46l-.1.71.51.09-.42 2.39c-.14-.03-.28-.05-.41-.07l-.1.71c.83.14 1.65.29 2.46.44l-.41 2.29c-1.38-.29-2.81-.56-4.27-.81l2.84-22.19 5.24.87-.43 2.44c-1-.18-2.02-.36-3.05-.53l-.1.71c.15.02.3.05.45.07zm12.13 1.93.54-2.69c.34.1.68.2 1.01.3l-.55 2.68c-.33-.09-.67-.19-1-.29zm-1.45 6.54.52-2.56c.38.11.75.21 1.11.33l-.52 2.55c-.37-.11-.73-.22-1.11-.32zm0 5.73-1.61 7.86c-.72-.25-1.46-.49-2.23-.72l1.54-6.52c.17-.72.9-1.17 1.62-1 .27.06.5.2.68.38zm-.31-8.53-.53 2.57c-.51-.14-1.03-.28-1.57-.41l-.22.73c1.24.32 2.44.65 3.58 1L128.4 26c-.01-.01-.03-.01-.04-.01-1.79-.41-3.59.7-4.01 2.46l-1.63 6.92c-.94-.27-1.91-.52-2.91-.77l6.68-22.48-.04-.01.04-.16c-2.38-.58-4.94-1.11-7.64-1.58l.83-5.36c.48.08.97.17 1.45.26l-.29 3.7 3.19.54.59-3.59c.9.18 1.81.36 2.72.55l-.69 3.72 3.14.69.8-3.72c.53.12 1.06.24 1.6.36l-1.16 5.66c-.82-.25-1.67-.49-2.54-.72l-.23.73c.26.07.51.15.77.22l-.55 2.7c-.34-.09-.69-.18-1.04-.27l-.22.73c1.01.27 2 .55 2.94.84l-.5 2.46c-1.03-.3-2.09-.59-3.19-.87l-.23.73c.45.11.88.23 1.32.35zM86.19 42.25v-.01c13.31-.02 26.47 1.74 39.48 5.3l.52-1.75c-9.85-3.35-24.13-5.47-40-5.52h-.54c-15.69.05-29.8 2.17-39.54 5.52l.51 1.75c12.86-3.56 25.87-5.32 39.03-5.3v.01h.54zm38.1 6.69c-11.08-3.38-24.17-5.33-38.17-5.33s-27.08 1.95-38.16 5.33c11.41-2.56 24.4-4.02 38.16-4.02 13.77 0 26.76 1.46 38.17 4.02zm-81.5 13.41-.91-13.67 3.5-.34-.68-3.5 1.69-.34-.9-4.62-1.58.34-.79-3.49 1.47-.34-6.09-30.1C43.38 5 48.32 3.91 53.31 3.02l1.13 7.25 2.53-.23-.65-7.52c5.4-.87 10.86-1.5 16.34-1.89l.65 7.46 5.17-.23V.31C83.65.1 88.84.1 94.01.31l-.09 7.49 5.07.3.71-7.47c5.52.39 11.02 1.03 16.47 1.91l-.67 7.39 2.54.3 1-7.21c5 .88 9.95 1.97 14.83 3.27l-6.08 30.1 1.46.34-.79 3.49-1.58-.34-.9 4.62 1.69.34-.67 3.5 3.49.34-.91 13.8c1.23-1.63 3.12-3.07 5.67-4.33-2.54-.95-3.42-2.89-3.42-4.39.02-3.29 4.45-5.51 6.73-6.54 1.62-.73 5.73-2.58 6.13-5.4.23-1.64-.77-3.5-2.27-3.53-.29-.01-.99.26-1.45.96-.44-.17-.88-.35-1.32-.53.68-1.73 2.18-2.2 3.44-2.22 1.63-.02 3.48.45 5.44 3.54.71-.35 1.31-.89 1.67-1.84 1.44 3.81 1.08 6.72-.8 8.87 1.71-.03 3.28.56 4.75 1.59-4.96 1.8-1.35 4.35-3.34 6.06.47.11.91.67 1.37 1.56.65 1.23 2.48 1.72 2.32-.68 1.53.35 2.14 1.94 1.06 4.22 7.3-1.11 10.16 3.78 7.73 6.95 2.38 4.65-.92 8.84-6.12 8.5-.14-.65-.28-1.3-.41-1.95 3.74-.11 4.75-2.91 3.48-5.03-1.78-2.99-8.48-.1-10.08.78-5.13 2.8-8.53 1.78-10.07-3.25-2.42 2.04-1.32 4.64 3.3 7.79 10.79 7.37 26.53 17.53 26.26 33.88-.08 4.48-1.93 9.1-6.09 13.75 6 1.34 8.9 4.99 8.75 7.29-.15 2.31-2.94 6.74-9.58 6.74 6.62-7.04 3.01-9.4-11.11-7.92 3.93.42 7.87 1.21 11.8 2.36-2.67 4.92-3.81 9.62-3.89 14.17 3.74 1.88 6.33 4.2 6.32 5.79-.02 2.6-1.95 14.79-6.12 20.45-2.28 3.1-9.9 4.05-15.39 3.55-22.75-2.07-40.24-5.17-57.92-5.17s-35.54 3.1-58.29 5.17c-5.49.5-13.11-.45-15.39-3.55-4.18-5.66-6.1-17.85-6.12-20.45-.02-1.59 2.58-3.91 6.32-5.79-.09-4.55-1.22-9.25-3.89-14.17 3.93-1.15 7.87-1.94 11.8-2.36-14.12-1.48-17.73.88-11.11 7.92-6.64 0-9.43-4.43-9.58-6.74-.15-2.3 2.75-5.95 8.75-7.29-4.16-4.65-6.01-9.27-6.09-13.75-.27-16.35 15.47-26.51 26.26-33.88 4.62-3.15 5.72-5.75 3.3-7.79-1.54 5.03-4.94 6.05-10.07 3.25-1.6-.88-8.3-3.77-10.09-.78-1.26 2.12-.26 4.92 3.49 5.03-.14.65-.27 1.3-.41 1.95-5.21.34-8.5-3.85-6.13-8.5-2.42-3.17.44-8.06 7.74-6.95-1.08-2.28-.47-3.87 1.06-4.22-.16 2.4 1.66 1.91 2.31.68.47-.89.9-1.45 1.38-1.56-1.99-1.71 1.62-4.26-3.34-6.06 1.47-1.03 3.04-1.62 4.74-1.59-1.87-2.15-2.24-5.06-.79-8.87.36.95.96 1.49 1.67 1.84 1.96-3.09 3.81-3.56 5.43-3.54 1.27.02 2.77.49 3.45 2.22-.44.18-.88.36-1.32.53-.46-.7-1.16-.97-1.45-.96-1.5.03-2.5 1.89-2.27 3.53.4 2.82 4.5 4.67 6.13 5.4 2.28 1.03 6.71 3.25 6.72 6.54.01 1.5-.88 3.44-3.41 4.39 2.48 1.22 4.34 2.62 5.57 4.2zm86.15 9.78L126 116.38c.23-.08.49-.16.77-.22.39-1.43 1.2-2.13 2.42-2.12-.32-1.88.38-3.14 2.12-3.78.92-7.7 8.83-6.36 13.1-5.5 2.39.49 6.66 1.35 8.14-3.38.6-1.89-1.77-6.2-5.36-3.37-.26-.2-.51-.41-.76-.61.69-1.68 2.1-2.53 4.23-2.57-5.29-7.1-17.91-14.65-21.72-22.7zm-3.74 48.98c-.78 2.4-2.12 4.56-3.92 6.48 2.36-1.33 5.5-1.94 9.42-2.36-2.98-1.48-4.63-2.89-5.5-4.12zm-6.91 9.14c-15.15 11.44-48.72 11.49-64.02.13 3.51 5.28 4.74 17.96 2.93 19.81 19.96-2 38.11-2 58.07 0-1.83-1.87-.56-14.76 3.02-19.94zm-67.27-2.76c-1.74-1.87-3.04-3.97-3.81-6.3-.89 1.22-2.53 2.6-5.44 4.04 3.82.41 6.9 1 9.25 2.26zM22.56 62.58c.75.07 1.84.41 2.52.41 0 .07.14.27.21.27v.34c-.07 0-.21.21-.28.21-.68.27-1.29-.55-1.84-.68 0-.07-.2-.21-.27-.21 0-.07-.2-.2-.27-.2l-.07-.07v-.07zm3.54-5.85c.21.13.48.34.68.4.14.07.41.07.62.07.4.07 1.22.75 1.63.75 0 .07.2.27.27.27 0 .07.27.48.34.48 0 .14-.07.34-.07.41l-.06.07-.07.06c-.61 0-.82-.2-1.36-.54-.21-.14-1.36-1.09-1.36-1.36-.14 0 0-.07-.14-.07a.15.15 0 0 0-.14-.14l-.07-.06v-.14l-.27-.2zm3.2-6.61c.27.07 1.84.55 1.84.89h.14c0 .07.27.34.34.34 0 .07.07.13.13.2v.55l-.06.06h-.62l-.13-.06c-.21-.14-.41-.55-.68-.68a.15.15 0 0 0-.14-.14c0-.14-.68-1.09-.82-1.16zm120.68 12.46c-.75.07-1.84.41-2.52.41 0 .07-.14.27-.21.27v.34c.07 0 .21.21.28.21.68.27 1.29-.55 1.83-.68 0-.07.21-.21.28-.21 0-.07.2-.2.27-.2l.07-.07v-.07zm-3.54-5.85c-.21.13-.48.34-.68.4-.14.07-.41.07-.62.07-.4.07-1.22.75-1.63.75 0 .07-.2.27-.27.27 0 .07-.27.48-.34.48 0 .14.07.34.07.41l.06.07.07.06c.61 0 .82-.2 1.36-.54.21-.14 1.36-1.09 1.36-1.36.14 0 0-.07.14-.07 0-.07.07-.14.14-.14l.07-.06v-.14l.27-.2zm-3.2-6.61c-.27.07-1.84.55-1.84.89h-.14c0 .07-.27.34-.34.34 0 .07-.07.13-.13.2v.55l.06.06h.62l.13-.06c.21-.14.41-.55.68-.68 0-.07.07-.14.14-.14 0-.14.68-1.09.82-1.16z" class="fil1 str0"/><path id="_137772976" d="M14.17 158.23c-.06-.32-.14-.57-.22-.76-.08-.18-.19-.33-.37-.45-.16-.11-.44-.2-.75-.27 0-.14 0-.28-.01-.43 1.46.18 2.93.36 4.41.48.02.15.02.3.02.45-.33.02-.55.05-.68.08s-.23.14-.32.33c-.09.18-.11.49-.02.92.29 1.39.67 2.79 1.06 4.18.39 1.39.8 2.78 1.09 4.18.1.48.16.85.26 1.08.11.24.21.41.4.52.15.1.4.19.77.27 0 .15 0 .3.01.46-1.44-.25-2.88-.57-4.31-.88-.01-.14-.01-.29-.03-.44.3.03.53.02.71-.05.13-.05.23-.17.28-.35.04-.18.04-.44-.03-.78-.3-1.43-.73-2.85-1.15-4.27-.42-1.42-.83-2.84-1.12-4.27zm77.14-3.17c-.02-.01-.02-.03-.03-.04-.08-.2-.16-.36-.28-.48-.15-.14-.3-.22-.46-.27a5.74 5.74 0 0 0-.59-.11c-.04-.13-.07-.26-.13-.4l1.88.06c.03-.08.06-.16.11-.25.12.01.22.01.32.02.03.08.06.16.07.25l1.65.06c.52.01 1.02.11 1.56.29.52.18.99.47 1.4.87.43.4.72.92.88 1.56.31 1.25-.15 2.07-1.32 2.47v.03c.53.14.98.36 1.38.64.41.29.75.64 1 1.05.26.41.47.87.57 1.38.14.56.12 1.07.02 1.53-.12.46-.38.83-.84 1.09-.44.27-1.06.38-1.9.33-.34-.01-.66-.03-1-.04l-2.69-.09c-.4-.01-.79-.02-1.19-.04.01-.13.01-.27.01-.41.27.01.5-.02.7-.08.16-.07.26-.24.27-.51 0-.2-.04-.4-.07-.62-.15-.53-.29-1.07-.41-1.61-.9-.03-1.81-.04-2.72-.04-.19.53-.36 1.07-.52 1.6 0 .11-.06.3-.1.57.04.28.13.46.32.55.18.08.43.13.7.13v.41h-2.45v-.41c.15 0 .3-.06.43-.18.12-.13.21-.28.29-.46.09-.18.17-.34.21-.47.03-.13.12-.38.25-.75.43-1.28.88-2.56 1.32-3.83.45-1.27.92-2.53 1.36-3.8zm2.03.07.48 1.89c.17.63.34 1.26.5 1.89.41.01.74-.03.97-.12.25-.09.41-.23.49-.44.07-.19.11-.47.07-.8-.04-.36-.13-.64-.19-.85-.16-.64-.41-1.18-.75-1.62-.33-.44-.71-.68-1.16-.69-.24-.01-.37.04-.44.15-.08.11-.09.3.03.59zm2.09 8.39c.1.4.23.68.39.83.18.16.36.24.56.27.08-.02.18-.02.31-.02.41-.02.65-.27.71-.74.06-.47 0-1.06-.16-1.75-.09-.37-.2-.81-.4-1.28-.18-.41-.44-.71-.71-.92-.28-.21-.5-.34-.78-.4-.25-.06-.57-.11-.92-.12.14.69.32 1.38.48 2.07.16.68.34 1.37.52 2.06zm54.73 4.61c.37-1.45.84-2.91 1.35-4.36.52-1.46 1.01-2.91 1.4-4.37.11-.41.09-.73.1-.95.01-.22-.08-.39-.22-.54-.13-.13-.35-.21-.69-.23 0-.16.03-.33.03-.49 2.37.09 4.74.18 7.1.24-.03.58-.09 1.16-.22 1.74-.12.58-.32 1.15-.5 1.73-.11 0-.23.01-.33.02.3-1.5.03-2.41-.73-2.72-.36-.16-.8-.24-1.32-.25-.31-.01-.57.04-.75.15-.18.1-.3.35-.37.73-.13.72-.33 1.44-.56 2.15-.23.72-.5 1.43-.76 2.15.46-.02.83-.11 1.18-.29.31-.16.61-.45.91-.85.29-.39.57-.94.87-1.64.1-.01.22-.01.33-.01-.33 1.02-.7 2.03-1.08 3.04-.39 1.02-.77 2.03-1.11 3.04-.13.02-.25.03-.34.04.2-.7.31-1.24.31-1.63 0-.39-.07-.66-.22-.8a.875.875 0 0 0-.54-.25c-.22-.02-.4-.03-.53-.04-.28.77-.56 1.54-.81 2.31s-.47 1.53-.63 2.3c-.08.36-.01.6.11.72.13.12.42.15.87.09 1.53-.22 2.78-1.54 3.96-3.69.12-.02.26-.05.4-.08-.3.61-.6 1.21-.83 1.82-.22.6-.38 1.23-.5 1.84-2.48.59-4.88.87-7.2.97.01-.15.02-.31.04-.47.4-.06.68-.18.85-.34.18-.16.31-.52.43-1.08zm-6.03-9.5c-.18-.45-.35-.78-.46-1-.12-.25-.25-.38-.41-.39.01-.17.03-.33.03-.5.87.05 1.72.1 2.59.14.57 1.42 1.03 2.82 1.35 4.24.32 1.39.5 2.79.77 4.18.32-.98.68-1.95 1.01-2.94.32-.98.59-1.96.83-2.95.13-.55.09-1-.08-1.34-.16-.33-.4-.51-.76-.53 0-.16.01-.33.03-.5.86.05 1.75.09 2.63.13 0 .16-.02.33-.03.49-.07.02-.19.04-.4.09-.17.03-.33.13-.44.28-.14.21-.23.55-.34 1-.46 1.9-1.12 3.77-1.75 5.66-.62 1.88-1.04 3.78-1.23 5.67-.12 0-.22-.01-.33-.01-.72-1.75-1.25-3.5-1.59-5.28-.33-1.77-.66-3.56-1.1-5.34-.01 0-.03-.01-.03-.01-.35 1.33-.73 2.66-1.15 3.98-.41 1.33-.8 2.65-1.1 3.98-.12.55-.05.94.1 1.2.13.22.39.39.78.48-.01.16-.01.32-.04.48-.88-.06-1.78-.12-2.65-.2.02-.16.02-.31.03-.47.06-.01.13-.02.21-.02.07 0 .14-.01.2-.03.09-.01.16-.05.22-.09.08-.04.14-.1.21-.18.12-.13.19-.3.25-.49.06-.21.12-.55.24-1.02.36-1.46.79-2.9 1.23-4.35.44-1.45.84-2.9 1.18-4.36zm-4.66-.24c.06-.34.05-.61.02-.8a.612.612 0 0 0-.26-.44c-.16-.11-.4-.18-.74-.23 0-.15.03-.3.03-.45 1.43.08 2.87.16 4.31.25 0 .15-.01.3-.01.46-.32.02-.56.05-.71.09-.13.03-.25.15-.39.35-.14.2-.19.53-.28.97-.31 1.46-.72 2.9-1.14 4.35-.41 1.44-.84 2.89-1.16 4.34-.11.51-.13.88-.1 1.11.03.24.13.41.25.5.13.1.4.18.72.24-.02.16-.03.32-.04.48-1.37-.13-2.74-.26-4.09-.4.01-.16.03-.31.04-.47.29-.01.54-.05.71-.14.16-.08.28-.22.35-.41.07-.19.13-.47.21-.83.29-1.5.72-2.99 1.14-4.48.42-1.49.84-2.99 1.14-4.49zm-10.93 2.29c.25-.73.6-1.38.97-1.99.36-.61.74-1.13 1.16-1.56.42-.43.86-.76 1.32-.98.48-.22 1-.31 1.5-.28.43.03.85.18 1.33.44.14.08.35.19.6.35.25.16.38.24.47.26.06-.02.1-.03.16-.03.15-.06.31-.33.46-.79.1 0 .22.01.34.02-.06.73-.11 1.46-.24 2.19-.12.73-.29 1.46-.47 2.19-.1-.01-.21-.02-.31-.02-.03-.78-.11-1.47-.32-2.07-.22-.6-.52-1.05-.87-1.39-.33-.32-.66-.51-1.03-.53-.63-.02-1.15.34-1.62 1.03-.25.37-.48.84-.72 1.42-.23.6-.48 1.31-.7 2.15-.06.22-.2.57-.33 1.05-.22.85-.35 1.65-.44 2.4-.09.75-.1 1.34-.04 1.78.05.41.17.74.29 1.02.12.27.28.51.5.71.22.2.51.35.85.39.8.11 1.2-.3 1.33-1.16.19-1.34.4-2.13.45-2.41.05-.23.05-.42-.01-.55-.06-.13-.13-.23-.25-.29-.12-.07-.25-.11-.37-.13-.12-.02-.23-.04-.31-.05.03-.16.08-.31.11-.47 1.36.13 2.73.25 4.1.37-.04.16-.09.32-.13.48-.06 0-.12 0-.21.01-.1 0-.16.01-.22.02s-.13.04-.22.08-.17.09-.24.15c-.19.18-.39.56-.51 1.14-.19.87-.34 1.74-.46 2.61-1.04.65-2.04.91-3.08.79-.55-.06-1.1-.21-1.62-.49-.36-.19-.71-.51-1-.93-.29-.42-.54-.91-.71-1.48a6.2 6.2 0 0 1-.25-1.88c.01-.68.08-1.4.27-2.12.1-.4.27-.88.47-1.45zm-3.36-3.3c.05-.32.05-.57 0-.76a.653.653 0 0 0-.29-.42c-.15-.1-.4-.17-.72-.22 0-.15.01-.29 0-.43 1.44.09 2.87.19 4.32.28.02.14 0 .29 0 .43-.31.03-.54.05-.69.09-.13.03-.25.14-.38.33-.12.18-.2.49-.27.92-.21 1.37-.5 2.75-.82 4.12-.32 1.37-.64 2.74-.87 4.12-.08.48-.08.84-.04 1.06.03.23.13.39.28.49.13.09.38.18.72.25-.02.15-.03.3-.03.45-1.37-.17-2.74-.34-4.09-.5 0-.15 0-.3.01-.45.31 0 .53-.04.68-.11.16-.08.29-.21.35-.39.07-.18.14-.44.2-.78.21-1.42.52-2.83.83-4.24.31-1.41.61-2.83.81-4.24zm-10.13 7.28c.16-1.27.37-2.54.6-3.82.23-1.26.44-2.53.6-3.8.05-.37.06-.66.03-.87a.787.787 0 0 0-.28-.51c-.13-.13-.36-.21-.66-.26 0-.14.02-.28.02-.41 1.35.08 2.7.17 4.06.25.91.06 1.62.27 2.1.65.47.38.78.81.9 1.3.11.49.12.99.04 1.5-.04.27-.18.59-.32.95-.15.36-.43.71-.78 1.06-.35.34-.83.58-1.4.71.19.8.41 1.61.63 2.41.23.81.48 1.62.77 2.43.13.37.23.59.29.69.06.09.18.15.33.16-.02.15-.02.3-.02.44-.81-.09-1.62-.19-2.4-.29-.36-.96-.72-1.92-.98-2.89-.26-.94-.5-1.9-.74-2.84-.11-.02-.23-.03-.34-.03-.1.6-.22 1.2-.32 1.8-.1.6-.19 1.21-.26 1.81-.05.39-.02.67.04.86.06.19.15.33.28.4.12.07.31.15.63.25-.01.15-.01.29-.01.43l-3.97-.45c.01-.14.01-.28.01-.43.28 0 .5-.04.65-.11.14-.07.25-.21.32-.42s.13-.54.18-.97zm3.29-8.23c-.07.75-.18 1.49-.31 2.24-.12.75-.26 1.5-.41 2.24.86.07 1.47-.04 1.81-.32.42-.34.72-1 .9-2 .1-.6.11-1.11.06-1.55-.05-.44-.22-.78-.52-1.02-.17-.13-.45-.2-.88-.23-.24-.01-.41.05-.5.2-.09.15-.15.3-.15.44zm-12.99 3.08c.19-.99.55-1.87 1.02-2.67.46-.78 1.02-1.39 1.69-1.83.67-.43 1.41-.64 2.24-.58.69.05 1.32.31 1.91.74.6.45 1.09 1.07 1.41 1.87.33.81.43 1.75.37 2.84-.01.26-.04.56-.1.91-.19.99-.51 1.91-.95 2.81-.43.88-.94 1.59-1.6 2.13-.64.52-1.37.77-2.22.69-.63-.05-1.21-.27-1.74-.59-.53-.34-.98-.78-1.35-1.35-.37-.56-.6-1.21-.73-1.94-.14-.74-.17-1.53-.05-2.38.03-.17.06-.39.1-.65zm2.15.18c-.01.07-.02.16-.04.29-.02.13-.04.22-.05.28-.15 1.08-.22 2.02-.16 2.84.06.82.25 1.48.53 1.96.29.48.68.75 1.18.81.01-.01.03-.02.04-.03.5.04.89-.17 1.24-.63.35-.47.62-1.08.85-1.85.23-.76.41-1.59.56-2.48.02-.14.06-.32.09-.56.03-.23.06-.4.07-.51.08-.78.13-1.45.11-2.03-.03-.58-.11-1.07-.24-1.47-.13-.41-.32-.72-.57-.94-.25-.23-.55-.36-.9-.39-.71-.04-1.25.37-1.66 1.22-.21.43-.43.94-.59 1.51-.16.59-.32 1.25-.46 1.98zm-16.4-2.65c-.25.66-.46 1.33-.7 2-.25.67-.48 1.34-.7 2.01.81.01 1.59.02 2.4.04-.17-.67-.34-1.35-.5-2.03-.15-.67-.32-1.35-.5-2.02zm-16.58 6.16c.43-1.65.87-3.29 1.3-4.93.42-1.62.91-3.23 1.4-4.84.1-.01.2-.01.32-.01.47 1.56.97 3.11 1.43 4.66.45 1.54.93 3.07 1.39 4.6.07.21.11.44.18.68.07.25.16.47.24.66.08.2.21.35.33.49.13.12.28.19.45.18 0 .15 0 .29.01.43-1.29.07-2.59.15-3.88.24 0-.14 0-.29-.02-.43.31-.02.53-.07.71-.16.17-.09.26-.27.26-.56 0-.2-.04-.41-.1-.63-.15-.55-.31-1.1-.47-1.65-.91.05-1.82.1-2.72.16-.15.57-.29 1.15-.41 1.73-.03.11-.06.31-.09.6.04.3.14.48.32.56.19.07.41.1.69.07v.44c-.81.07-1.62.14-2.42.22v-.44c.14-.02.29-.1.41-.23.12-.14.2-.31.29-.51.09-.2.14-.37.18-.51.04-.15.1-.41.2-.82zm2.11-6.1c-.19.71-.38 1.42-.56 2.14-.19.72-.37 1.43-.55 2.16.78-.05 1.59-.09 2.39-.13-.24-.69-.45-1.39-.65-2.08-.2-.7-.41-1.39-.63-2.09zm-11.25 0c-.04-.65-.06-1.12-.11-1.43-.04-.3-.08-.52-.14-.64-.07-.12-.2-.2-.37-.25-.16-.04-.36-.08-.53-.12 0-.13.01-.26 0-.4 1.29-.08 2.59-.15 3.9-.23.88-.05 1.65.12 2.25.48.61.37 1.11.84 1.44 1.41.33.58.57 1.16.72 1.75.15.59.25 1.11.26 1.57.05 2.17-.32 3.83-1.07 4.98-.76 1.17-1.93 1.84-3.47 2.01-1.15.12-2.27.25-3.4.38-.01-.14-.01-.28-.01-.42.29-.1.5-.2.63-.31.12-.1.22-.26.26-.48.05-.21.07-.54.05-.96-.07-1.23-.13-2.45-.21-3.67-.08-1.22-.14-2.45-.2-3.67zm1.94-1.85c.04 1.61.14 3.21.22 4.81.08 1.61.14 3.21.2 4.81.02.52.29.77.8.69.41-.06.76-.25 1.03-.48.26-.23.52-.65.72-1.24.15-.45.27-.98.32-1.62.05-.64.07-1.33.05-2.08-.02-.63-.09-1.26-.18-1.9-.1-.64-.24-1.24-.44-1.79-.2-.56-.46-1.01-.78-1.35-.34-.34-.74-.5-1.21-.47-.23.01-.43.08-.56.2-.12.12-.17.27-.17.42zm-6.62 1.08c-.02-.33-.06-.59-.12-.77a.659.659 0 0 0-.34-.39c-.16-.08-.41-.12-.73-.13 0-.15 0-.29-.03-.44 1.45-.11 2.89-.21 4.35-.31.02.14 0 .29 0 .44-.31.06-.53.12-.66.17-.13.06-.25.18-.35.39-.11.21-.15.52-.12.96.09 1.4.18 2.8.28 4.2.09 1.4.2 2.79.28 4.19.02.49.08.84.14 1.06.07.22.17.36.33.42.14.06.39.09.73.08.02.15.02.31.02.46-1.4.16-2.78.33-4.16.5 0-.15 0-.31-.02-.46.31-.08.53-.17.69-.29.15-.12.27-.28.31-.48.04-.2.06-.48.04-.83-.08-1.46-.19-2.93-.3-4.38-.11-1.46-.27-2.93-.34-4.39zm-6.77 9.37c-.13-1.4-.29-2.8-.45-4.19-.17-1.4-.32-2.8-.43-4.2-.03-.4-.11-.71-.16-.94a.854.854 0 0 0-.31-.52c-.16-.12-.38-.17-.69-.17 0-.15 0-.31-.02-.46 1.36-.11 2.69-.23 4.05-.34.89-.07 1.62.08 2.1.45.49.38.8.82.97 1.32.17.51.26 1.01.3 1.51.05.85-.08 1.57-.42 2.16-.34.61-.8 1.02-1.35 1.28-.31.14-.97.29-2.03.4.07.62.15 1.24.22 1.87.07.62.11 1.24.15 1.86.02.43.09.73.17.92.08.19.18.3.31.35.14.05.34.08.64.11 0 .16.01.31.03.47-1.33.17-2.65.34-3.95.5 0-.16 0-.31-.01-.47.26-.08.46-.17.6-.28.14-.11.22-.3.27-.54.04-.24.04-.61.01-1.09zm1.03-9.4c.06.84.13 1.68.21 2.52.08.84.16 1.68.26 2.52.41-.04.71-.1.91-.19.18-.08.35-.22.5-.4.34-.38.44-1.16.33-2.35-.06-.65-.14-1.2-.25-1.67-.12-.46-.32-.78-.59-.99-.17-.13-.44-.2-.81-.17-.4.04-.57.28-.56.73zm-8.84 10.69c-.18-1.49-.37-2.98-.6-4.46-.23-1.49-.46-2.98-.62-4.47-.05-.43-.1-.74-.15-.97a.889.889 0 0 0-.31-.51c-.16-.13-.42-.17-.76-.15v-.5c2.35-.2 4.72-.41 7.07-.61.03.64.05 1.28.11 1.91.06.64.11 1.28.19 1.92l-.31.03c-.31-1.64-.85-2.6-1.65-2.85-.39-.13-.84-.16-1.34-.12-.32.03-.56.11-.73.24-.17.12-.24.39-.21.79.07.75.13 1.49.24 2.23.1.74.2 1.48.31 2.22.44-.05.79-.17 1.01-.36.23-.19.39-.5.49-.93.09-.43.11-1.02.1-1.76l.32-.03c.12 1.07.28 2.15.42 3.23.13 1.08.26 2.16.41 3.23-.12.02-.22.03-.31.04-.13-.73-.3-1.31-.5-1.71-.21-.41-.41-.69-.63-.83-.22-.15-.45-.22-.68-.23-.24-.01-.4-.02-.53-.02.1.8.23 1.59.34 2.39.11.8.19 1.59.25 2.38.03.37.13.62.28.74.16.13.45.17.89.12 1.45-.17 2.37-1.41 2.68-3.71.12-.01.25-.03.38-.04-.01.66-.04 1.33-.06 2-.01.66-.08 1.33-.13 2-2.29.27-4.59.54-6.88.79 0-.16 0-.32-.02-.48.4-.09.65-.23.8-.4.14-.18.17-.55.13-1.12zm-8.41.36c-.24-1.43-.52-2.86-.78-4.29-.27-1.43-.55-2.86-.75-4.29-.06-.41-.13-.73-.19-.97-.07-.24-.18-.42-.33-.53-.16-.13-.38-.19-.69-.2 0-.16 0-.31-.01-.47 1.34-.08 2.69-.18 4.03-.28.89-.07 1.63.06 2.13.4.51.34.89.75 1.1 1.26.21.5.36 1.04.44 1.59.05.3.05.66.03 1.07-.01.41-.13.83-.35 1.26-.21.43-.57.77-1.07 1.01.5.82 1.02 1.62 1.53 2.44.49.81.93 1.63 1.38 2.43.2.36.32.59.4.66.09.09.17.12.33.1.02.16.03.32.03.48-.82.09-1.61.18-2.41.25-.45-.97-.96-1.96-1.5-2.92-.55-.99-1.16-1.96-1.75-2.94-.1.01-.22.02-.34.03.14.67.27 1.34.39 2.02.11.67.19 1.35.27 2.02.06.43.14.75.23.94.08.2.2.33.33.38.14.05.37.1.65.14.03.16.03.32.03.48-1.32.12-2.63.22-3.93.3-.01-.16-.03-.32-.04-.48.29-.06.49-.13.63-.25.13-.1.19-.28.24-.53.04-.25.03-.62-.03-1.11zm.34-9.56c.1.83.18 1.67.32 2.5.14.84.32 1.67.46 2.51.86-.07 1.38-.29 1.61-.66.27-.44.29-1.21.14-2.32-.1-.65-.2-1.21-.37-1.68-.17-.47-.38-.81-.71-1.03-.17-.11-.48-.16-.9-.12-.23.01-.38.11-.45.29s-.1.35-.1.51zm-6.58 9.94c-.31-1.7-.68-3.41-1.06-5.12-.37-1.7-.66-3.41-.85-5.11-.52.03-.92.17-1.24.42-.3.24-.53.6-.63 1.08-.1.47-.1 1.09-.01 1.84h-.36c-.13-.64-.25-1.28-.35-1.92-.1-.64-.13-1.28-.16-1.93 2.47-.08 4.93-.19 7.38-.34.03.65.08 1.3.16 1.95.08.65.19 1.3.33 1.95-.12 0-.25.01-.37.02-.27-.99-.59-1.76-.96-2.34-.35-.57-.95-.85-1.81-.82.2 1.74.5 3.47.86 5.21.36 1.73.75 3.46 1.03 5.2.1.63.18 1.06.38 1.27.19.21.51.3.93.29 0 .16.01.32.03.48l-4.21.12c-.02-.16-.02-.32-.03-.48.44 0 .72-.15.87-.41.14-.24.17-.68.07-1.36zm-12.53-9.05c-.33-.44-.54-.77-.71-.99-.2-.24-.37-.36-.51-.37 0-.16 0-.33-.02-.48.87.05 1.75.11 2.62.14.82 1.36 1.78 2.74 2.8 4.11 1.02 1.39 2.08 2.77 3.13 4.14-.24-.98-.5-1.96-.74-2.95-.23-.98-.43-1.96-.61-2.95-.11-.55-.27-1-.49-1.32-.22-.32-.53-.48-.9-.48 0-.16-.01-.32-.03-.49.89-.01 1.77-.02 2.65-.04.02.17.03.34.03.5-.06.02-.18.06-.35.11-.19.05-.33.14-.41.3-.11.21-.13.56-.05 1.02.33 1.9.81 3.78 1.25 5.68.44 1.89.77 3.78.93 5.67h-.31a55.8 55.8 0 0 0-3.53-5.28c-1.32-1.75-2.69-3.49-3.99-5.24h-.01c.28 1.29.62 2.58.97 3.88.35 1.29.7 2.58.96 3.88.1.53.22.92.44 1.18.19.23.5.41.91.51 0 .16.01.31.03.47-.91-.11-1.84-.23-2.75-.36-.02-.15-.02-.3-.03-.45.06-.01.13-.01.2-.01.09 0 .15 0 .22-.02a.6.6 0 0 0 .2-.07.793.793 0 0 0 .3-.64c0-.19-.03-.53-.13-.98-.29-1.42-.68-2.83-1.06-4.23-.38-1.42-.73-2.83-1.01-4.24z" class="fil1 str0"/><path d="M185.28 91h6.67l.05 9.96 5.03-9.96h6.64l-4.09 16.36h-4.13l3.11-12.47-6.3 12.47h-3.75l-.06-12.47-3.12 12.47h-4.13z" class="fil0"/><path id="_1" d="M217.53 91h5.05l-2.44 9.75c-.24.96-.62 1.88-1.13 2.73-.52.86-1.18 1.61-1.98 2.26-.81.64-1.59 1.09-2.36 1.35-1.08.36-2.3.55-3.68.55-.79 0-1.64-.06-2.56-.17-.91-.11-1.64-.33-2.19-.66s-1.01-.8-1.38-1.41c-.38-.61-.58-1.24-.61-1.89-.05-1.04.02-1.96.22-2.76l2.44-9.75h5.05l-2.5 9.98c-.22.89-.15 1.59.22 2.09.37.5.99.75 1.87.75.86 0 1.6-.25 2.22-.74.62-.49 1.04-1.19 1.27-2.1l2.49-9.98z" class="fil0"/><path id="_2" d="M225.96 91h4.71l3.88 9.04L236.8 91h4.78l-4.09 16.36h-4.77l-3.86-8.98-2.24 8.98h-4.75z" class="fil0"/><path id="_3" d="M245.14 91h5.07l-4.09 16.36h-5.07z" class="fil0"/><path id="_4" d="m262.3 100.67 4.1 1.33c-.61 1.25-1.34 2.29-2.19 3.12-.84.83-1.79 1.46-2.85 1.88-1.05.42-2.31.64-3.78.64-1.78 0-3.17-.26-4.17-.78-1-.51-1.74-1.42-2.23-2.72-.5-1.3-.49-2.97.02-5 .67-2.7 1.91-4.78 3.71-6.23 1.81-1.46 4.02-2.18 6.66-2.18 2.06 0 3.58.41 4.55 1.25.97.83 1.53 2.11 1.66 3.84l-4.7.99c-.03-.5-.1-.86-.22-1.09-.19-.38-.46-.68-.81-.89-.36-.21-.79-.31-1.3-.31-1.15 0-2.14.46-2.98 1.38-.63.68-1.13 1.75-1.5 3.21-.45 1.82-.48 3.05-.1 3.73.38.67 1.07 1 2.07 1 .97 0 1.76-.27 2.4-.81.63-.54 1.18-1.33 1.66-2.36z" class="fil0"/><path id="_5" d="M271.79 91h5.07l-4.08 16.36h-5.07z" class="fil0"/><path id="_6" d="M280.45 91h8.41c1.83 0 3.09.43 3.79 1.31.69.87.83 2.11.43 3.72-.41 1.66-1.23 2.95-2.46 3.88-1.23.93-2.86 1.4-4.9 1.4h-2.77l-1.51 6.05h-5.07L280.45 91zm3.33 6.99h1.24c.98 0 1.71-.17 2.2-.51.48-.34.78-.77.91-1.3.13-.51.07-.95-.19-1.31-.25-.35-.85-.53-1.8-.53h-1.45l-.91 3.65z" class="fil0"/><path id="_7" d="M301.67 104.67h-5.72l-1.5 2.69h-5.15L299.54 91h5.53l2.04 16.36h-5.29l-.15-2.69zm-.18-3.55-.32-5.88-3.26 5.88h3.58z" class="fil0"/><path id="_8" d="M312.79 91h5.05l-3.08 12.34h7.9l-1 4.02h-12.95z" class="fil0"/><path id="_9" d="M335.71 91h7.51c1.48 0 2.63.2 3.44.6.8.41 1.41.98 1.82 1.73.41.76.62 1.63.64 2.63.02.99-.11 2.05-.39 3.16-.43 1.75-.97 3.11-1.61 4.07a9.74 9.74 0 0 1-2.26 2.43c-.87.65-1.74 1.08-2.6 1.3-1.19.29-2.23.44-3.13.44h-7.51L335.71 91zm4.12 3.7-2.23 8.94h1.24c1.06 0 1.84-.12 2.35-.35.51-.24.96-.65 1.36-1.23.4-.58.76-1.53 1.09-2.84.43-1.73.45-2.92.04-3.56-.41-.64-1.27-.96-2.58-.96h-1.27z" class="fil0"/><path id="_10" d="M353.41 91h13.52l-.88 3.5h-8.45l-.65 2.6h7.84l-.84 3.34h-7.83l-.81 3.22h8.71l-.93 3.7h-13.77z" class="fil0"/><path id="_11" d="M384.32 91h5.07l-2.22 8.89c-.46 1.86-.98 3.28-1.56 4.26-.57.97-1.44 1.8-2.61 2.47-1.17.68-2.54 1.02-4.1 1.02-1.65 0-2.87-.23-3.67-.67-.8-.45-1.34-1.1-1.62-1.96-.28-.86-.3-1.92-.08-3.18l4.99-.66c-.17.72-.24 1.25-.21 1.6.03.35.16.62.39.84.16.14.42.21.78.21.56 0 1.03-.21 1.4-.63.37-.42.68-1.12.93-2.12L384.32 91z" class="fil0"/><path id="_12" d="M390.06 99.19c.67-2.67 1.93-4.75 3.79-6.23 1.86-1.49 4.12-2.23 6.78-2.23 2.72 0 4.63.73 5.74 2.19 1.11 1.46 1.33 3.51.67 6.14-.47 1.91-1.18 3.48-2.13 4.7a9.94 9.94 0 0 1-3.51 2.86c-1.38.68-2.98 1.02-4.8 1.02-1.84 0-3.3-.3-4.36-.88-1.06-.59-1.81-1.52-2.24-2.79-.43-1.27-.41-2.86.06-4.78zm5.05.01c-.41 1.65-.4 2.84.03 3.56.44.72 1.19 1.08 2.24 1.08 1.09 0 2.02-.35 2.79-1.05.78-.71 1.39-1.98 1.85-3.81.38-1.54.35-2.66-.09-3.37-.45-.71-1.2-1.07-2.27-1.07-1.02 0-1.93.36-2.73 1.08-.8.72-1.41 1.92-1.82 3.58z" class="fil0"/><path id="_13" d="M418.42 104.67h-5.72l-1.5 2.69h-5.16L416.28 91h5.54l2.04 16.36h-5.29l-.15-2.69zm-.18-3.55-.32-5.88-3.26 5.88h3.58zm4.05-14.19h1.76c-.04.2-.08.36-.11.51-.21.82-.58 1.47-1.11 1.92-.53.45-1.12.68-1.77.68-.48 0-1.15-.19-2.02-.58-.53-.24-.9-.36-1.12-.36-.22 0-.4.07-.55.21-.15.13-.28.37-.37.71h-1.74c.04-.18.08-.34.11-.47.2-.8.58-1.44 1.13-1.91.56-.47 1.14-.71 1.74-.71.26 0 .5.03.71.09.22.06.6.22 1.16.48.55.26.97.39 1.25.39.2 0 .38-.07.54-.2.15-.14.28-.39.39-.76z" class="fil0"/><path id="_14" d="M426.85 99.19c.67-2.67 1.93-4.75 3.79-6.23 1.86-1.49 4.12-2.23 6.77-2.23 2.73 0 4.64.73 5.75 2.19 1.11 1.46 1.33 3.51.67 6.14-.47 1.91-1.19 3.48-2.13 4.7a9.94 9.94 0 0 1-3.51 2.86c-1.39.68-2.99 1.02-4.8 1.02-1.84 0-3.3-.3-4.36-.88-1.06-.59-1.81-1.52-2.24-2.79-.43-1.27-.41-2.86.06-4.78zm5.05.01c-.41 1.65-.4 2.84.03 3.56.44.72 1.18 1.08 2.24 1.08 1.09 0 2.02-.35 2.79-1.05.78-.71 1.39-1.98 1.85-3.81.38-1.54.35-2.66-.1-3.37-.44-.71-1.19-1.07-2.26-1.07-1.02 0-1.93.36-2.73 1.08-.8.72-1.41 1.92-1.82 3.58z" class="fil0"/><path id="_15" d="M456.16 91h8.4c1.83 0 3.09.43 3.79 1.31.69.87.84 2.11.44 3.72-.42 1.66-1.24 2.95-2.46 3.88-1.23.93-2.87 1.4-4.91 1.4h-2.77l-1.51 6.05h-5.07L456.16 91zm3.32 6.99h1.25c.98 0 1.71-.17 2.19-.51.48-.34.79-.77.92-1.3.13-.51.06-.95-.19-1.31-.26-.35-.86-.53-1.81-.53h-1.45l-.91 3.65z" class="fil0"/><path id="_16" d="M472.67 91h13.52l-.87 3.5h-8.45l-.65 2.6h7.83l-.83 3.34h-7.83l-.81 3.22h8.7l-.92 3.7h-13.77z" class="fil0"/><path id="_17" d="m485.56 101.95 4.88-.3c-.1.78-.03 1.37.19 1.78.35.65 1.01.99 1.98.99.72 0 1.32-.17 1.79-.51.48-.34.77-.73.88-1.18.11-.42.02-.8-.27-1.14-.28-.33-1.06-.64-2.34-.95-2.09-.49-3.5-1.15-4.24-1.98-.75-.82-.96-1.87-.64-3.15.21-.84.65-1.63 1.32-2.38.68-.75 1.56-1.34 2.64-1.76 1.09-.43 2.48-.64 4.18-.64 2.09 0 3.58.38 4.49 1.17.9.77 1.24 2.01 1.02 3.71l-4.82.28c.06-.74-.07-1.28-.39-1.62-.32-.34-.84-.5-1.55-.5-.59 0-1.06.12-1.42.37-.36.25-.58.55-.67.91-.07.26 0 .49.18.7.18.22.69.42 1.54.6 2.09.48 3.55.96 4.38 1.45.83.49 1.38 1.09 1.63 1.81s.27 1.53.05 2.42c-.27 1.05-.8 2.02-1.6 2.91-.8.88-1.78 1.56-2.93 2.01-1.16.46-2.52.69-4.11.69-2.77 0-4.57-.54-5.37-1.61-.8-1.07-1.07-2.43-.8-4.08z" class="fil0"/><path id="_18" d="m502.06 101.95 4.87-.3c-.09.78-.03 1.37.19 1.78.36.65 1.02.99 1.98.99.72 0 1.32-.17 1.79-.51.48-.34.77-.73.88-1.18.11-.42.02-.8-.26-1.14-.29-.33-1.07-.64-2.35-.95-2.09-.49-3.5-1.15-4.24-1.98-.74-.82-.96-1.87-.64-3.15.21-.84.65-1.63 1.33-2.38.67-.75 1.55-1.34 2.63-1.76 1.09-.43 2.48-.64 4.18-.64 2.09 0 3.59.38 4.49 1.17.9.77 1.24 2.01 1.03 3.71l-4.82.28c.06-.74-.07-1.28-.39-1.62-.33-.34-.84-.5-1.56-.5-.58 0-1.06.12-1.42.37-.36.25-.58.55-.67.91-.07.26 0 .49.19.7.17.22.69.42 1.53.6 2.09.48 3.55.96 4.38 1.45.83.49 1.38 1.09 1.63 1.81.26.72.27 1.53.05 2.42-.26 1.05-.79 2.02-1.59 2.91-.81.88-1.78 1.56-2.94 2.01-1.15.46-2.52.69-4.1.69-2.78 0-4.57-.54-5.38-1.61-.8-1.07-1.06-2.43-.79-4.08z" class="fil0"/><path id="_19" d="M519.47 99.19c.66-2.67 1.93-4.75 3.79-6.23 1.86-1.49 4.11-2.23 6.77-2.23 2.72 0 4.64.73 5.74 2.19 1.11 1.46 1.33 3.51.68 6.14-.48 1.91-1.19 3.48-2.14 4.7a9.995 9.995 0 0 1-3.5 2.86c-1.39.68-2.99 1.02-4.81 1.02-1.84 0-3.29-.3-4.36-.88-1.06-.59-1.8-1.52-2.24-2.79-.43-1.27-.41-2.86.07-4.78zm5.04.01c-.41 1.65-.4 2.84.04 3.56.43.72 1.18 1.08 2.24 1.08 1.08 0 2.02-.35 2.79-1.05.77-.71 1.38-1.98 1.84-3.81.38-1.54.35-2.66-.09-3.37-.45-.71-1.2-1.07-2.27-1.07-1.02 0-1.93.36-2.72 1.08-.8.72-1.41 1.92-1.83 3.58z" class="fil0"/><path id="_20" d="M547.05 104.67h-5.73l-1.5 2.69h-5.15L544.91 91h5.53l2.04 16.36h-5.29l-.14-2.69zm-.19-3.55-.32-5.88-3.26 5.88h3.58z" class="fil0"/><path d="M298 121.62h254.48v13.92c0 6.83-5.58 12.41-12.41 12.41H298c-6.83 0-12.42-5.58-12.42-12.41v-13.92H298zm12.5 15.34 2.59.87c-.38.79-.84 1.46-1.38 2-.54.54-1.14.94-1.81 1.21-.67.28-1.47.41-2.39.41-1.13 0-2.01-.16-2.64-.49-.64-.34-1.11-.92-1.42-1.76-.31-.84-.31-1.91.01-3.22.43-1.74 1.21-3.08 2.36-4.02 1.14-.93 2.54-1.4 4.21-1.4 1.31 0 2.27.27 2.88.81.62.53.97 1.36 1.06 2.47l-2.98.64c-.02-.32-.07-.56-.14-.7-.12-.25-.29-.44-.52-.57-.22-.14-.5-.21-.82-.21-.72 0-1.35.3-1.88.89-.4.44-.72 1.13-.95 2.07-.29 1.17-.31 1.97-.07 2.4.25.43.68.65 1.31.65.62 0 1.12-.17 1.52-.53.4-.34.75-.85 1.06-1.52zm10.09 2.58h-3.63l-.95 1.74h-3.26l6.48-10.54h3.51l1.29 10.54h-3.35l-.09-1.74zm-.12-2.28-.2-3.79-2.07 3.79h2.27zm4.87.53 3.09-.19c-.06.5-.02.88.12 1.14.23.42.65.64 1.26.64.45 0 .83-.11 1.13-.33.3-.22.49-.47.56-.76.07-.27.01-.51-.17-.73-.18-.22-.68-.42-1.49-.61-1.32-.32-2.21-.75-2.68-1.28-.47-.53-.61-1.21-.41-2.03.14-.54.42-1.05.84-1.53.43-.48.99-.86 1.67-1.14.69-.27 1.57-.41 2.65-.41 1.32 0 2.27.25 2.84.75.57.5.79 1.3.65 2.4l-3.05.18c.04-.48-.05-.83-.25-1.05-.2-.21-.53-.32-.98-.32-.37 0-.67.08-.9.24-.23.16-.37.35-.43.59-.04.16 0 .31.12.45.11.14.44.26.97.38 1.33.31 2.25.62 2.78.94.52.31.87.7 1.03 1.16.16.47.17.99.03 1.56-.17.68-.5 1.3-1.01 1.87-.51.57-1.13 1.01-1.86 1.3-.73.3-1.59.44-2.6.44-1.76 0-2.89-.34-3.4-1.03-.51-.69-.68-1.57-.51-2.63zm16.94 1.75h-3.62l-.95 1.74h-3.27l6.49-10.54h3.5l1.29 10.54h-3.35l-.09-1.74zm-.12-2.28-.2-3.79-2.06 3.79h2.26zm12.01-6.52h2.99l2.46 5.82 1.42-5.82h3.03l-2.59 10.54h-3.02l-2.44-5.79-1.43 5.79h-3l2.58-10.54zm16.09 8.8h-3.62l-.95 1.74h-3.27l6.49-10.54h3.5l1.29 10.54h-3.35l-.09-1.74zm-.12-2.28-.2-3.79-2.06 3.79h2.26zm7.15-6.52h5.32c1.16 0 1.96.28 2.4.84.44.56.53 1.36.27 2.4-.26 1.06-.78 1.9-1.55 2.5-.78.6-1.82.9-3.11.9h-1.75l-.96 3.9h-3.21l2.59-10.54zm2.1 4.5h.79c.62 0 1.09-.11 1.39-.33.3-.22.5-.5.58-.84.08-.33.04-.61-.12-.84-.16-.23-.54-.34-1.14-.34h-.92l-.58 2.35zm6.66.77c.42-1.72 1.22-3.05 2.39-4.01 1.18-.96 2.61-1.44 4.29-1.44 1.73 0 2.94.47 3.64 1.41.7.94.84 2.26.43 3.96-.3 1.23-.75 2.24-1.35 3.03a6.56 6.56 0 0 1-2.22 1.84c-.88.44-1.9.65-3.05.65-1.16 0-2.08-.19-2.76-.56-.67-.38-1.14-.98-1.42-1.8-.27-.82-.26-1.84.05-3.08zm3.19.01c-.26 1.06-.25 1.83.02 2.29.28.47.75.7 1.42.7.69 0 1.28-.23 1.77-.68.49-.46.88-1.27 1.16-2.45.25-.99.23-1.72-.05-2.17-.29-.46-.76-.69-1.44-.69-.64 0-1.22.23-1.73.7-.5.46-.89 1.23-1.15 2.3zm10.55-5.28h3.2l-1.95 7.95h5l-.63 2.59h-8.2l2.58-10.54zm9.65 0H418l-.55 2.25h-5.35l-.41 1.68h4.96l-.53 2.15h-4.96l-.51 2.07h5.51l-.58 2.39h-8.73l2.59-10.54zm14.66 8.8h-3.63l-.95 1.74h-3.26l6.48-10.54h3.51l1.29 10.54h-3.35l-.09-1.74zm-.12-2.28-.2-3.79-2.07 3.79h2.27zm2.57-9.14h1.11c-.03.12-.05.23-.07.32-.13.53-.37.95-.7 1.24-.34.29-.71.44-1.12.44-.31 0-.73-.13-1.28-.38-.33-.15-.57-.22-.71-.22s-.26.04-.35.13c-.1.08-.18.23-.24.45h-1.09c.02-.11.04-.21.06-.3.13-.52.37-.93.72-1.23.35-.3.72-.45 1.1-.45.16 0 .32.02.45.05.14.04.38.15.73.31.35.17.62.26.8.26.12 0 .24-.05.34-.14.1-.09.18-.25.25-.48zm2.89 7.89c.42-1.72 1.22-3.05 2.39-4.01 1.18-.96 2.61-1.44 4.29-1.44 1.73 0 2.94.47 3.64 1.41.7.94.85 2.26.43 3.96-.3 1.23-.75 2.24-1.35 3.03a6.56 6.56 0 0 1-2.22 1.84c-.88.44-1.9.65-3.05.65-1.16 0-2.08-.19-2.76-.56-.67-.38-1.14-.98-1.42-1.8-.27-.82-.26-1.84.05-3.08zm3.19.01c-.26 1.06-.25 1.83.02 2.29.28.47.75.7 1.42.7.69 0 1.28-.23 1.77-.68.49-.46.88-1.27 1.17-2.45.24-.99.22-1.72-.06-2.17-.28-.46-.76-.69-1.44-.69-.64 0-1.22.23-1.72.7-.51.46-.9 1.23-1.16 2.3zm15.38-5.28h3.19l-1.95 7.95h5.01l-.64 2.59h-8.2l2.59-10.54zm13.86 8.8h-3.63l-.95 1.74h-3.26l6.48-10.54h3.5l1.3 10.54h-3.35l-.09-1.74zm-.12-2.28-.2-3.79-2.07 3.79h2.27zm13.4-6.52h3.2l-1.54 6.28c-.16.62-.4 1.2-.72 1.76-.33.55-.75 1.03-1.26 1.45-.51.41-1 .7-1.49.87-.68.24-1.46.35-2.33.35-.5 0-1.04-.03-1.62-.1-.58-.08-1.04-.22-1.39-.43a2.54 2.54 0 0 1-.87-.91c-.24-.39-.37-.8-.39-1.21-.03-.67.02-1.27.14-1.78l1.55-6.28h3.19l-1.58 6.43c-.14.57-.09 1.02.14 1.34.24.32.63.49 1.18.49.55 0 1.02-.16 1.41-.48.39-.32.66-.77.8-1.35l1.58-6.43zm2.77 10.54 2.58-10.54h5.34c.98 0 1.72.08 2.2.26.48.17.82.49 1.03.96.2.47.22 1.04.06 1.71-.15.58-.39 1.09-.74 1.51-.35.43-.77.77-1.27 1.04-.31.16-.72.3-1.23.42.35.13.6.25.74.38.09.09.22.28.37.56.16.28.25.5.29.65l.81 3.05h-3.62l-.92-3.22c-.11-.41-.24-.68-.38-.81-.19-.16-.43-.24-.72-.24h-.29l-1.04 4.27h-3.21zm4.74-6.26h1.35c.15 0 .45-.05.89-.14.22-.05.42-.16.6-.34.18-.17.29-.38.35-.61.08-.34.04-.6-.12-.78-.17-.19-.55-.28-1.13-.28h-1.41l-.53 2.15zm9.05-4.28h8.56l-.55 2.25h-5.35l-.41 1.68h4.96l-.53 2.15h-4.96l-.51 2.07h5.51l-.59 2.39h-8.72l2.59-10.54zm14.65 8.8h-3.62l-.95 1.74h-3.26l6.48-10.54h3.5l1.3 10.54h-3.35l-.1-1.74zm-.11-2.28-.2-3.79-2.07 3.79h2.27zm7.18-6.52h2.99l2.45 5.82 1.43-5.82h3.03l-2.59 10.54h-3.02l-2.44-5.79-1.43 5.79h-3l2.58-10.54zm10.32 5.27c.42-1.72 1.22-3.05 2.4-4.01s2.61-1.44 4.29-1.44c1.72 0 2.94.47 3.64 1.41.7.94.84 2.26.43 3.96-.31 1.23-.76 2.24-1.36 3.03-.6.78-1.34 1.4-2.22 1.84-.88.44-1.89.65-3.04.65-1.17 0-2.09-.19-2.76-.56-.67-.38-1.15-.98-1.42-1.8-.27-.82-.26-1.84.04-3.08zm3.2.01c-.26 1.06-.26 1.83.02 2.29.27.47.75.7 1.42.7.68 0 1.28-.23 1.76-.68.49-.46.88-1.27 1.17-2.45.24-.99.22-1.72-.06-2.17-.28-.46-.76-.69-1.43-.69-.65 0-1.22.23-1.73.7-.51.46-.89 1.23-1.15 2.3z" class="fil1"/></g></svg>