<svg width="48" height="42" viewBox="0 0 48 42" fill="none" xmlns="http://www.w3.org/2000/svg">
<path d="M0 19.8231C0 33.1281 11.4454 41.1429 25.4289 41.1429C38.2084 41.1429 48 32.0349 48 24.6673C48 17.7557 43.5793 14.4223 37.8484 10.6856C32.6957 7.32686 28.7627 0 18.1654 0C6.25929 0 0 10.7091 0 19.8231Z" fill="url(#paint0_linear_3111_34101)"/>
<path d="M32.0309 14.9299C33.3954 14.9299 34.4951 13.8246 34.4951 12.4626C34.4951 11.1044 33.3954 10 32.0309 10C30.6723 10 29.5709 11.1044 29.5709 12.4626C29.5704 13.8246 30.6719 14.9299 32.0309 14.9299ZM32.0626 16.7556C30.6779 16.7556 29.5503 20.0513 29.5503 24.1154C29.5503 28.1809 30.6779 31.474 32.0626 31.474C33.4486 31.474 34.5714 28.1804 34.5714 24.1154C34.5714 20.0513 33.4486 16.7556 32.0626 16.7556ZM20.8709 16.7474C16.7441 16.7474 14 20.0136 14 24.1073C14 28.2074 16.7441 31.4689 20.8709 31.4689C24.9869 31.4689 27.728 28.2074 27.728 24.1073C27.728 20.0136 24.9869 16.7474 20.8709 16.7474ZM20.8709 27.9996C18.9783 27.9996 17.9309 26.056 17.9309 24.0841C17.9309 22.1153 18.9783 20.2257 20.8709 20.2257C22.7566 20.2257 23.8019 22.1157 23.8019 24.0841C23.8019 26.0556 22.7566 27.9996 20.8709 27.9996Z" fill="white"/>
<defs>
<linearGradient id="paint0_linear_3111_34101" x1="36.4202" y1="7.75013" x2="7.98763" y2="36.1827" gradientUnits="userSpaceOnUse">
<stop stop-color="#009E0B"/>
<stop offset="0.1205" stop-color="#04A00B"/>
<stop offset="0.2454" stop-color="#11A40A"/>
<stop offset="0.3724" stop-color="#25AC09"/>
<stop offset="0.5008" stop-color="#43B708"/>
<stop offset="0.6304" stop-color="#68C607"/>
<stop offset="0.761" stop-color="#96D705"/>
<stop offset="0.8898" stop-color="#CBEB02"/>
<stop offset="1" stop-color="#FFFF00"/>
</linearGradient>
</defs>
</svg>
